<?xml version="1.0" encoding="UTF-8"?>
<svg version="1.1" xmlns="http://www.w3.org/2000/svg" width="266" height="190">
<path d="M0 0 C87.78 0 175.56 0 266 0 C266 62.7 266 125.4 266 190 C178.22 190 90.44 190 0 190 C0 127.3 0 64.6 0 0 Z " fill="#FEFEFE" transform="translate(0,0)"/>
<path d="M0 0 C9.57 0 19.14 0 29 0 C29 4.95 29 9.9 29 15 C24.38 15.33 19.76 15.66 15 16 C15.9384375 16.92683594 16.876875 17.85367188 17.84375 18.80859375 C19.06263021 20.01809796 20.28137316 21.22774051 21.5 22.4375 C22.12003906 23.04916016 22.74007812 23.66082031 23.37890625 24.29101562 C23.96542969 24.87431641 24.55195312 25.45761719 25.15625 26.05859375 C25.70087891 26.59798584 26.24550781 27.13737793 26.80664062 27.69311523 C28 29 28 29 28 30 C23.38 30 18.76 30 14 30 C14 35.28 14 40.56 14 46 C12.34553614 44.62128012 10.69894159 43.23218731 9.08984375 41.80078125 C7.02902159 39.96586606 7.02902159 39.96586606 4.75390625 38.41796875 C1.68100802 35.99141988 -0.65665772 33.99311878 -1.34814453 29.97900391 C-1.69204443 24.96280886 -1.4094481 20.00436568 -1 15 C5.435 14.505 5.435 14.505 12 14 C11.13375 13.15695313 10.2675 12.31390625 9.375 11.4453125 C8.24973959 10.33880643 7.12475372 9.23202112 6 8.125 C5.42765625 7.56941406 4.8553125 7.01382813 4.265625 6.44140625 C2.80549218 4.99865596 1.39850702 3.5025626 0 2 C0 1.34 0 0.68 0 0 Z " fill="#040404" transform="translate(49,72)"/>
<path d="M0 0 C5.66666667 0 11.33333333 0 17 0 C18.19625 -0.061875 19.3925 -0.12375 20.625 -0.1875 C21.73875 -0.125625 22.8525 -0.06375 24 0 C26.42130331 3.63195496 26.21022785 5.38349348 26.125 9.6875 C26.10695312 10.86699219 26.08890625 12.04648438 26.0703125 13.26171875 C26.04710937 14.16535156 26.02390625 15.06898437 26 16 C24.35 16 22.7 16 21 16 C21 12.04 21 8.08 21 4 C19.68 4.33 18.36 4.66 17 5 C16.67 8.63 16.34 12.26 16 16 C14.35 16 12.7 16 11 16 C10.67 12.37 10.34 8.74 10 5 C8.68 5 7.36 5 6 5 C5.67 8.63 5.34 12.26 5 16 C3.35 16 1.7 16 0 16 C0 10.72 0 5.44 0 0 Z " fill="#0E0E0E" transform="translate(159,89)"/>
<path d="M0 0 C0 5.28 0 10.56 0 16 C-2.33333333 16 -4.66666667 16 -7 16 C-8.7015625 16.12375 -8.7015625 16.12375 -10.4375 16.25 C-14 16 -14 16 -15.9375 14.5625 C-17.49559391 10.80474409 -17.75236814 7.00525391 -17 3 C-13.72921902 -2.37597456 -5.29811886 -0.14581979 0 0 Z " fill="#070707" transform="translate(155,89)"/>
<path d="M0 0 C2.875 1.625 2.875 1.625 5 4 C5.3125 7.25 5.3125 7.25 5 10 C1.37 10 -2.26 10 -6 10 C-6 10.99 -6 11.98 -6 13 C-4.33388095 13.042721 -2.66617115 13.04063832 -1 13 C-0.67 12.67 -0.34 12.34 0 12 C1.66617115 11.95936168 3.33388095 11.957279 5 12 C3.25 15.875 3.25 15.875 1 17 C-6.01599016 17.56580566 -6.01599016 17.56580566 -9.5 15.5625 C-11.72920717 11.75427109 -11.90705593 8.29865635 -11 4 C-7.77123438 0.10648852 -4.96361941 -0.8272699 0 0 Z " fill="#0A0A0A" transform="translate(199,88)"/>
<path d="M0 0 C4.62 0 9.24 0 14 0 C14 1.32 14 2.64 14 4 C11.03 4 8.06 4 5 4 C5 6.31 5 8.62 5 11 C7.97 11 10.94 11 14 11 C14 12.32 14 13.64 14 15 C11.03 15 8.06 15 5 15 C5 17.64 5 20.28 5 23 C3.35 23 1.7 23 0 23 C0 15.41 0 7.82 0 0 Z " fill="#010101" transform="translate(108,82)"/>
<path d="M0 0 C3.63 0 7.26 0 11 0 C11 1.32 11 2.64 11 4 C10.35546875 4.22429687 9.7109375 4.44859375 9.046875 4.6796875 C6.75611148 5.82889456 6.75611148 5.82889456 6.390625 8.3828125 C6.34421875 9.28773437 6.2978125 10.19265625 6.25 11.125 C6.19328125 12.03507812 6.1365625 12.94515625 6.078125 13.8828125 C6.05234375 14.58148438 6.0265625 15.28015625 6 16 C4.02 16 2.04 16 0 16 C0 10.72 0 5.44 0 0 Z " fill="#1C1C1C" transform="translate(125,89)"/>
<path d="M0 0 C1.32 0 2.64 0 4 0 C4.33 0.66 4.66 1.32 5 2 C5.33 1.34 5.66 0.68 6 0 C7.32 0 8.64 0 10 0 C10 1.32 10 2.64 10 4 C9.195625 4.391875 8.39125 4.78375 7.5625 5.1875 C4.82150722 6.71012513 4.82150722 6.71012513 4.4453125 9.1875 C4.21055947 11.46389301 4.05275145 13.71250528 4 16 C2.68 16 1.36 16 0 16 C0 10.72 0 5.44 0 0 Z " fill="#030303" transform="translate(208,89)"/>
<path d="M0 0 C2.5 0.125 2.5 0.125 3.5 1.125 C3.625 4.125 3.625 4.125 3.5 7.125 C2.5 8.125 2.5 8.125 0.0625 8.3125 C-2.5 8.125 -2.5 8.125 -4.5 6.125 C-3.77607362 0.18880368 -3.77607362 0.18880368 0 0 Z " fill="#EEEEEE" transform="translate(146.5,92.875)"/>
<path d="M0 0 C0.33 0 0.66 0 1 0 C1 1.65 1 3.3 1 5 C-6.28571429 8.57142857 -6.28571429 8.57142857 -11 7 C-11 6.01 -11 5.02 -11 4 C-7.37 4 -3.74 4 0 4 C0 2.68 0 1.36 0 0 Z " fill="#D6D6D6" transform="translate(204,94)"/>
<path d="M0 0 C1.65 0 3.3 0 5 0 C5.33 0.99 5.66 1.98 6 3 C3.69 3 1.38 3 -1 3 C-0.67 2.01 -0.34 1.02 0 0 Z " fill="#E9E9E9" transform="translate(194,92)"/>
</svg>
