<?xml version="1.0" encoding="UTF-8"?>
<svg version="1.1" xmlns="http://www.w3.org/2000/svg" width="275" height="183">
<path d="M0 0 C90.75 0 181.5 0 275 0 C275 60.39 275 120.78 275 183 C184.25 183 93.5 183 0 183 C0 122.61 0 62.22 0 0 Z " fill="#FEFEFE" transform="translate(0,0)"/>
<path d="M0 0 C1.65 0 3.3 0 5 0 C5.67031719 1.9570868 6.33614683 3.91571113 7 5.875 C7.556875 7.51082031 7.556875 7.51082031 8.125 9.1796875 C9 12 9 12 9 14 C9.66 14 10.32 14 11 14 C11.18175781 13.11248047 11.18175781 13.11248047 11.3671875 12.20703125 C12.26744643 7.96196415 13.20456621 3.97560339 15 0 C17.475 0.495 17.475 0.495 20 1 C21.32 4.96 22.64 8.92 24 13 C25.49251706 10.01496588 26.60987721 7.38765227 27.625 4.25 C27.88539063 3.45078125 28.14578125 2.6515625 28.4140625 1.828125 C28.60742188 1.22484375 28.80078125 0.6215625 29 0 C30.65 0 32.3 0 34 0 C32.05797655 8.02071473 29.33160505 15.45450713 26 23 C24.68 23 23.36 23 22 23 C20.35 18.38 18.7 13.76 17 9 C15.35 13.62 13.7 18.24 12 23 C10.68 23 9.36 23 8 23 C6.66408687 19.35510669 5.33170192 15.70893381 4 12.0625 C3.6184375 11.02158203 3.236875 9.98066406 2.84375 8.90820312 C2.4828125 7.91884766 2.121875 6.92949219 1.75 5.91015625 C1.41484375 4.99371338 1.0796875 4.07727051 0.734375 3.13305664 C0 1 0 1 0 0 Z " fill="#242528" transform="translate(177,84)"/>
<path d="M0 0 C6.35470441 0.47960033 6.35470441 0.47960033 8.9375 2.5625 C10.71994172 6.65163101 10.69886215 10.88609661 9.31030273 15.08618164 C8.36802665 17.19110684 7.33960099 19.21762368 6.25 21.25 C5.90195313 21.94351563 5.55390625 22.63703125 5.1953125 23.3515625 C3.22611031 27.15868674 1.27206171 30.14063076 -2 33 C-3.19381281 28.73383103 -3.1915481 24.71683234 -3.1875 20.3125 C-3.18741943 19.50683594 -3.18733887 18.70117188 -3.18725586 17.87109375 C-3.12758472 11.66027082 -2.833915 5.66783 0 0 Z " fill="#CF102E" transform="translate(66,69)"/>
<path d="M0 0 C1.64802525 4.32820473 2.23933471 7.86985584 2.1953125 12.4921875 C2.18564453 14.29042969 2.18564453 14.29042969 2.17578125 16.125 C2.15902344 17.3625 2.14226563 18.6 2.125 19.875 C2.11597656 21.13570312 2.10695313 22.39640625 2.09765625 23.6953125 C2.07415808 26.7970704 2.04130334 29.89843652 2 33 C-1.10689677 30.06859048 -3.05516201 26.69993019 -5.125 23 C-5.48464844 22.3709375 -5.84429687 21.741875 -6.21484375 21.09375 C-9.65662912 15.00939534 -11.01362274 9.97007995 -10 3 C-6.84611626 -0.87477145 -4.71977529 -1.61820867 0 0 Z " fill="#CF0D2A" transform="translate(59,70)"/>
<path d="M0 0 C1.2065625 0.0309375 1.2065625 0.0309375 2.4375 0.0625 C3.94335523 3.51831315 5.44118289 6.97754753 6.9375 10.4375 C7.36675781 11.42234375 7.79601562 12.4071875 8.23828125 13.421875 C8.84736328 14.83339844 8.84736328 14.83339844 9.46875 16.2734375 C9.84580078 17.14274902 10.22285156 18.01206055 10.61132812 18.90771484 C11.4375 21.0625 11.4375 21.0625 11.4375 23.0625 C9.7875 23.0625 8.1375 23.0625 6.4375 23.0625 C5.9425 20.5875 5.9425 20.5875 5.4375 18.0625 C3.64489868 18.12245322 1.85324205 18.2112241 0.0625 18.3125 C-0.93523437 18.35890625 -1.93296875 18.4053125 -2.9609375 18.453125 C-5.7151477 18.78410885 -5.7151477 18.78410885 -6.9140625 21.109375 C-7.12804687 21.75390625 -7.34203125 22.3984375 -7.5625 23.0625 C-9.2125 23.0625 -10.8625 23.0625 -12.5625 23.0625 C-11.01844283 18.13548339 -9.08124213 13.46605176 -7 8.75 C-6.52530273 7.65848633 -6.52530273 7.65848633 -6.04101562 6.54492188 C-3.20236694 0.07810651 -3.20236694 0.07810651 0 0 Z " fill="#222325" transform="translate(166.5625,83.9375)"/>
<path d="M0 0 C1.32 0 2.64 0 4 0 C4 2.97 4 5.94 4 9 C7.63 9 11.26 9 15 9 C15 6.03 15 3.06 15 0 C16.65 0 18.3 0 20 0 C20 7.59 20 15.18 20 23 C18.35 23 16.7 23 15 23 C15 19.7 15 16.4 15 13 C11.37 13 7.74 13 4 13 C4 16.3 4 19.6 4 23 C2.68 23 1.36 23 0 23 C0 15.41 0 7.82 0 0 Z " fill="#252628" transform="translate(105,84)"/>
<path d="M0 0 C5.61 0 11.22 0 17 0 C17 1.32 17 2.64 17 4 C13.04 4 9.08 4 5 4 C5 5.65 5 7.3 5 9 C7.64 9 10.28 9 13 9 C13 10.32 13 11.64 13 13 C10.36 13 7.72 13 5 13 C5 14.98 5 16.96 5 19 C9.29 19 13.58 19 18 19 C18 20.32 18 21.64 18 23 C12.06 23 6.12 23 0 23 C0 15.41 0 7.82 0 0 Z " fill="#292A2C" transform="translate(215,84)"/>
<path d="M0 0 C0.66 0 1.32 0 2 0 C3.68388582 2.21691443 5.23044415 4.42351341 6.75 6.75 C7.19520996 7.42361572 7.64041992 8.09723145 8.09912109 8.79125977 C11.89975932 14.64109956 15.09288293 20.65397616 18 27 C13.67847882 25.71246714 10.16118418 24.06735543 6.375 21.625 C5.45460938 21.03976563 4.53421875 20.45453125 3.5859375 19.8515625 C-2.38825523 15.57396831 -2.38825523 15.57396831 -3.75 12.0703125 C-4.27781508 7.9632514 -4.17077333 6.32976919 -2.1875 2.5 C-1.465625 1.675 -0.74375 0.85 0 0 Z " fill="#CF0D2B" transform="translate(40,77)"/>
<path d="M0 0 C4.69689379 3.75751503 4.69689379 3.75751503 5.47265625 6.9375 C5.62892864 10.52497054 5.42077373 12.33983871 3.44140625 15.4453125 C0.40195886 18.62579025 -2.84420772 20.67315928 -6.625 22.875 C-7.305625 23.29007813 -7.98625 23.70515625 -8.6875 24.1328125 C-10.41842474 25.15905247 -12.2060826 26.08833706 -14 27 C-14.66 26.67 -15.32 26.34 -16 26 C-11.30252039 16.74246704 -6.41271647 8.20350166 0 0 Z " fill="#CE0B29" transform="translate(83,77)"/>
<path d="M0 0 C1.32 0 2.64 0 4 0 C4.04898438 1.13179688 4.09796875 2.26359375 4.1484375 3.4296875 C4.22346514 4.91148339 4.29901297 6.393253 4.375 7.875 C4.4059375 8.62136719 4.436875 9.36773437 4.46875 10.13671875 C4.55643831 14.53473188 4.55643831 14.53473188 7 18 C9.5 18.33333333 9.5 18.33333333 12 18 C14.93447357 15.06552643 14.46158423 11.81740544 14.625 7.875 C14.68300781 6.74384766 14.68300781 6.74384766 14.7421875 5.58984375 C14.83651031 3.72696816 14.91934662 1.86351745 15 0 C16.32 0 17.64 0 19 0 C19.13539281 2.89740622 19.23426829 5.78845621 19.3125 8.6875 C19.35439453 9.50412109 19.39628906 10.32074219 19.43945312 11.16210938 C19.52786575 15.52969312 19.42621356 17.42055783 16.76171875 21.04296875 C13.99906898 23.00065975 12.82167689 23.68348023 9.5 23.625 C8.7678125 23.63789062 8.035625 23.65078125 7.28125 23.6640625 C3.65673072 22.60897983 2.22729247 21.02802938 0 18 C-0.58998672 14.86701736 -0.47531181 11.8610779 -0.3125 8.6875 C-0.28994141 7.85154297 -0.26738281 7.01558594 -0.24414062 6.15429688 C-0.1855061 4.10208851 -0.09583215 2.05080798 0 0 Z " fill="#1B1C1E" transform="translate(132,84)"/>
<path d="M0 0 C-0.36696811 7.2170395 -0.36696811 7.2170395 -3.375 10.9375 C-7.80379309 14.417266 -11.79977462 14.12367068 -17.1875 14.0625 C-17.93708984 14.05798828 -18.68667969 14.05347656 -19.45898438 14.04882812 C-21.30602383 14.03706354 -23.15302213 14.01912865 -25 14 C-20.74610731 10.37317516 -16.17824603 7.56965296 -11.375 4.75 C-10.611875 4.29109375 -9.84875 3.8321875 -9.0625 3.359375 C-8.32773438 2.92625 -7.59296875 2.493125 -6.8359375 2.046875 C-5.83892822 1.45664551 -5.83892822 1.45664551 -4.82177734 0.85449219 C-3 0 -3 0 0 0 Z " fill="#CF0D2B" transform="translate(93,93)"/>
<path d="M0 0 C4.72904163 1.4028044 8.87351035 3.41553609 13.125 5.875 C13.73214844 6.21402344 14.33929688 6.55304688 14.96484375 6.90234375 C18.46640392 8.90868433 21.29691624 11.00105633 24 14 C21.45716766 14.10871967 18.91904912 14.18762401 16.375 14.25 C15.66214844 14.28351563 14.94929688 14.31703125 14.21484375 14.3515625 C9.00274916 14.44719726 6.12966286 13.44758641 2 10 C-0.4294516 6.3558226 -0.16179575 4.28758728 0 0 Z " fill="#CF0C29" transform="translate(32,93)"/>
<path d="M0 0 C1.32 0 2.64 0 4 0 C4 7.59 4 15.18 4 23 C2.68 23 1.36 23 0 23 C0 15.41 0 7.82 0 0 Z " fill="#16171B" transform="translate(239,84)"/>
<path d="M0 0 C5.61 0 11.22 0 17 0 C13 5 13 5 10.75 6.125 C6.46381701 5.9301735 3.33272686 3.59671522 0 1 C0 0.67 0 0.34 0 0 Z " fill="#CE0D25" transform="translate(70,109)"/>
<path d="M0 0 C5.61 0 11.22 0 17 0 C11.39001391 4.48798888 9.98129446 5.4899154 3 5 C1.0625 3.625 1.0625 3.625 0 2 C0 1.34 0 0.68 0 0 Z " fill="#CE0A24" transform="translate(38,109)"/>
<path d="M0 0 C1 3 1 3 -0.65234375 6.35546875 C-1.40377702 7.63889017 -2.16596501 8.91606134 -2.9375 10.1875 C-3.51661133 11.16879883 -3.51661133 11.16879883 -4.10742188 12.16992188 C-5.06253088 13.78535316 -6.03010066 15.39340525 -7 17 C-7.66 16.01 -8.32 15.02 -9 14 C-7.88182488 11.85035318 -6.75592552 9.70542434 -5.625 7.5625 C-5.30789062 6.95083984 -4.99078125 6.33917969 -4.6640625 5.70898438 C-2.2265625 1.11328125 -2.2265625 1.11328125 0 0 Z " fill="#F6DEE1" transform="translate(76,84)"/>
<path d="M0 0 C0.33 0.66 0.66 1.32 1 2 C4.96 2 8.92 2 13 2 C11 4 11 4 7.3046875 4.1953125 C5.82799892 4.182009 4.35137642 4.15814835 2.875 4.125 C2.12089844 4.11597656 1.36679688 4.10695313 0.58984375 4.09765625 C-1.27357254 4.0740687 -3.13682593 4.03819719 -5 4 C-3.35 2.68 -1.7 1.36 0 0 Z " fill="#D11F38" transform="translate(73,103)"/>
<path d="M0 0 C0 0.33 0 0.66 0 1 C-2.62527189 1.05382106 -5.24944713 1.09358313 -7.875 1.125 C-8.62136719 1.14175781 -9.36773437 1.15851563 -10.13671875 1.17578125 C-12.09194461 1.1933959 -14.04742021 1.10320189 -16 1 C-16.66 0.34 -17.32 -0.32 -18 -1 C-15.93906592 -1.223293 -13.8761161 -1.42802887 -11.8125 -1.625 C-10.66394531 -1.74101563 -9.51539063 -1.85703125 -8.33203125 -1.9765625 C-4.96669584 -2.00023426 -2.98778294 -1.47419799 0 0 Z " fill="#D11D38" transform="translate(56,106)"/>
<path d="M0 0 C0.66 0 1.32 0 2 0 C2.99 2.64 3.98 5.28 5 8 C2.36 8 -0.28 8 -3 8 C-2.01 5.36 -1.02 2.72 0 0 Z " fill="#E5E5E5" transform="translate(165,90)"/>
<path d="M0 0 C4.09189762 1.36396587 4.61547327 3.34848983 6.6875 7.0625 C7.31011719 8.16722656 7.93273438 9.27195312 8.57421875 10.41015625 C9.04472656 11.26480469 9.51523437 12.11945313 10 13 C9.01 13.33 8.02 13.66 7 14 C5.82807953 12.04480616 4.6626071 10.0857461 3.5 8.125 C2.8503125 7.03445312 2.200625 5.94390625 1.53125 4.8203125 C0 2 0 2 0 0 Z " fill="#F9E7E8" transform="translate(49,87)"/>
<path d="M0 0 C-4.01254885 3.51098025 -8.20983041 5.76537994 -13 8 C-13 7.01 -13 6.02 -13 5 C-10.91796875 3.359375 -10.91796875 3.359375 -8.1875 1.75 C-7.29417969 1.20859375 -6.40085937 0.6671875 -5.48046875 0.109375 C-3 -1 -3 -1 0 0 Z " fill="#F7E3E5" transform="translate(85,96)"/>
<path d="M0 0 C4.8274799 1.41292095 8.7162359 3.42974154 13 6 C12.67 6.99 12.34 7.98 12 9 C9.99492073 7.88407791 7.99603904 6.75701288 6 5.625 C4.88625 4.99851562 3.7725 4.37203125 2.625 3.7265625 C1.75875 3.15679687 0.8925 2.58703125 0 2 C0 1.34 0 0.68 0 0 Z " fill="#F8E4E6" transform="translate(43,97)"/>
<path d="M0 0 C2.72426311 2.35277269 3.8141763 4.62496331 5 8 C1.22454612 6.90931332 -1.47043472 6.0916909 -4 3 C-1.525 3.495 -1.525 3.495 1 4 C0.67 2.68 0.34 1.36 0 0 Z " fill="#D01D2D" transform="translate(53,96)"/>
<path d="M0 0 C1.65 0 3.3 0 5 0 C4.8125 1.875 4.8125 1.875 4 4 C1.4375 5.25 1.4375 5.25 -1 6 C-0.67 4.02 -0.34 2.04 0 0 Z " fill="#1E1F22" transform="translate(206,84)"/>
<path d="M0 0 C0 1.65 0 3.3 0 5 C-0.99 5 -1.98 5 -3 5 C-3.33 5.66 -3.66 6.32 -4 7 C-4.66 6.67 -5.32 6.34 -6 6 C-3.4 0 -3.4 0 0 0 Z " fill="#292A2C" transform="translate(164,90)"/>
<path d="M0 0 C1.32 0 2.64 0 4 0 C3.67 1.65 3.34 3.3 3 5 C2.01 5 1.02 5 0 5 C-0.33 4.01 -0.66 3.02 -1 2 C-0.67 1.34 -0.34 0.68 0 0 Z " fill="#1D1E20" transform="translate(189,93)"/>
</svg>
