<?xml version="1.0" encoding="UTF-8"?>
<svg version="1.1" xmlns="http://www.w3.org/2000/svg" width="225" height="225">
<path d="M0 0 C74.25 0 148.5 0 225 0 C225 74.25 225 148.5 225 225 C150.75 225 76.5 225 0 225 C0 150.75 0 76.5 0 0 Z " fill="#FEFEFE" transform="translate(0,0)"/>
<path d="M0 0 C0.78299973 -0.0065712 1.56599945 -0.0131424 2.37272644 -0.01991272 C4.94941322 -0.03953056 7.526042 -0.05128302 10.1027832 -0.0612793 C10.98822123 -0.06535482 11.87365925 -0.06943035 12.78592873 -0.07362938 C17.47349433 -0.09444194 22.16103109 -0.10876392 26.84863281 -0.11816406 C31.66565604 -0.12921344 36.48221546 -0.16361023 41.29907513 -0.20333576 C45.02509869 -0.22960109 48.75101337 -0.2378647 52.47712135 -0.24144554 C54.25156598 -0.24628652 56.02600656 -0.25782863 57.80035973 -0.27648354 C70.63946922 -0.40307252 81.57148231 0.03816127 91.31762695 9.46606445 C91.86161133 10.03067383 92.4055957 10.5952832 92.96606445 11.17700195 C93.72918945 11.94012695 94.49231445 12.70325195 95.27856445 13.48950195 C101.2938672 23.06942856 100.43995136 34.22546332 100.43481445 45.10668945 C100.44192918 46.94695259 100.44963006 48.78721355 100.45788574 50.62747192 C100.47127985 54.47200701 100.47292217 58.3163369 100.46704102 62.16088867 C100.46114873 67.05859624 100.4917408 71.95531124 100.5321579 76.85282707 C100.55815639 80.65012811 100.56090138 84.44719393 100.55726624 88.24457169 C100.55894603 90.04888529 100.5684771 91.85321111 100.58641052 93.65743637 C100.69726413 106.18676963 99.99884022 116.86771919 91.21606445 126.67700195 C83.8451246 133.39181648 75.68900556 135.31935483 65.97558594 135.35400391 C65.17337112 135.3605751 64.37115631 135.3671463 63.54463196 135.37391663 C60.89213966 135.39360951 58.239704 135.40530601 55.5871582 135.4152832 C54.67782091 135.41935873 53.76848362 135.42343426 52.83159065 135.42763329 C48.01435703 135.44848134 43.19715176 135.46278606 38.37988281 135.47216797 C33.4260448 135.48320327 28.47265955 135.51757343 23.51898098 135.55733967 C19.69172891 135.58360457 15.86458286 135.59186875 12.03724861 135.59544945 C10.21256531 135.60029337 8.38788604 135.61184408 6.56329155 135.63048744 C-15.22103545 135.83916242 -15.22103545 135.83916242 -24.40893555 128.86450195 C-35.57962897 117.42783964 -35.50013794 105.12128408 -35.4675293 89.9230957 C-35.47209793 88.05322583 -35.47740551 86.18335763 -35.4834137 84.31349182 C-35.49231199 80.40928287 -35.48995804 76.50527886 -35.47998047 72.60107422 C-35.46847668 67.61576097 -35.48874065 62.63115458 -35.51789761 57.6459341 C-35.53630141 53.78957179 -35.53595914 49.93337774 -35.53026009 46.0769825 C-35.53010748 44.23950265 -35.53610114 42.40201096 -35.54855156 40.56457329 C-35.65434286 22.4001544 -35.65434286 22.4001544 -31.03393555 15.17700195 C-30.45643555 14.12512695 -29.87893555 13.07325195 -29.28393555 11.98950195 C-21.50784217 2.26938523 -12.00492641 0.04434643 0 0 Z " fill="#DA3756" transform="translate(80.033935546875,44.822998046875)"/>
<path d="M0 0 C1.18613892 0.00785522 1.18613892 0.00785522 2.39624023 0.01586914 C3.67724609 0.02070312 3.67724609 0.02070312 4.98413086 0.02563477 C6.33087891 0.03820312 6.33087891 0.03820312 7.70483398 0.05102539 C8.6065332 0.05553711 9.50823242 0.06004883 10.43725586 0.06469727 C12.67234712 0.07652315 14.90730835 0.09300319 17.14233398 0.11352539 C17.25873818 9.68495957 17.34730578 19.25614606 17.40139484 28.82813644 C17.42736918 33.27394558 17.46254125 37.71926661 17.51953125 42.16479492 C17.57428985 46.46369397 17.60384573 50.76212677 17.6167202 55.06134796 C17.62588217 56.69266336 17.64377126 58.32395636 17.67098427 59.9550705 C17.86299925 71.95318497 16.7534942 82.30182405 8.39233398 91.61352539 C1.02139413 98.32833992 -7.13472491 100.25587827 -16.84814453 100.29052734 C-17.65035934 100.29709854 -18.45257416 100.30366974 -19.27909851 100.31044006 C-21.93159081 100.33013295 -24.58402647 100.34182944 -27.23657227 100.35180664 C-28.14590956 100.35588217 -29.05524685 100.3599577 -29.99213982 100.36415672 C-34.80937343 100.38500478 -39.62657871 100.39930949 -44.44384766 100.40869141 C-49.39768567 100.41972671 -54.35107092 100.45409686 -59.30474949 100.49386311 C-63.13200156 100.52012801 -66.95914761 100.52839218 -70.78648186 100.53197289 C-72.61116516 100.53681681 -74.43584443 100.54836751 -76.26043892 100.56701088 C-98.04476592 100.77568586 -98.04476592 100.77568586 -107.23266602 93.80102539 C-115.78709114 85.04292348 -118.19993779 76.33769966 -118.19755554 64.13754272 C-118.18207169 62.92047638 -118.16658783 61.70341003 -118.15063477 60.44946289 C-118.14638992 59.17624176 -118.14214508 57.90302063 -118.13777161 56.59121704 C-118.12391517 53.24063444 -118.09706343 49.89069018 -118.06365967 46.5402832 C-118.03272005 43.10772148 -118.01921576 39.67509324 -118.00415039 36.24243164 C-117.97121688 29.53262312 -117.92111964 22.82311102 -117.85766602 16.11352539 C-117.52766602 16.11352539 -117.19766602 16.11352539 -116.85766602 16.11352539 C-116.64110352 17.53665039 -116.64110352 17.53665039 -116.42016602 18.98852539 C-116.02831202 22.00697479 -116.02831202 22.00697479 -114.85766602 24.11352539 C-112.21766602 24.11352539 -109.57766602 24.11352539 -106.85766602 24.11352539 C-105.9410862 29.4984318 -105.74628442 34.65582728 -105.85766602 40.11352539 C-105.19766602 40.11352539 -104.53766602 40.11352539 -103.85766602 40.11352539 C-103.85766602 39.12352539 -103.85766602 38.13352539 -103.85766602 37.11352539 C-103.19766602 37.11352539 -102.53766602 37.11352539 -101.85766602 37.11352539 C-101.85766602 38.10352539 -101.85766602 39.09352539 -101.85766602 40.11352539 C-101.19766602 40.11352539 -100.53766602 40.11352539 -99.85766602 40.11352539 C-99.8430835 40.67749023 -99.82850098 41.24145508 -99.81347656 41.82250977 C-99.73821748 44.42014485 -99.64182118 47.01660183 -99.54516602 49.61352539 C-99.52260742 50.50040039 -99.50004883 51.38727539 -99.47680664 52.30102539 C-99.11695194 61.19925079 -96.96664054 67.72041385 -90.83032227 74.35180664 C-85.69192872 78.9407482 -79.53794254 81.22423141 -72.70288086 81.2746582 C-71.65103607 81.28426575 -70.59919128 81.29387329 -69.51547241 81.30377197 C-68.37800568 81.30802185 -67.24053894 81.31227173 -66.06860352 81.31665039 C-64.89560699 81.32235046 -63.72261047 81.32805054 -62.5140686 81.33392334 C-60.02753604 81.34337791 -57.54099092 81.34990913 -55.05444336 81.35375977 C-51.26857271 81.36343364 -47.48325224 81.39444052 -43.69750977 81.42602539 C-41.27954423 81.43255875 -38.86157482 81.43780791 -36.44360352 81.44165039 C-35.31828217 81.45399719 -34.19296082 81.46634399 -33.03353882 81.47906494 C-23.19754301 81.45149681 -15.84346103 79.8557436 -8.58422852 73.01586914 C-3.55835761 67.47831454 -1.73427874 61.94266866 -1.72827148 54.56640625 C-1.72354324 52.89964088 -1.72354324 52.89964088 -1.71871948 51.19920349 C-1.72074371 50.00432816 -1.72276794 48.80945282 -1.72485352 47.57836914 C-1.72341843 45.73306358 -1.72341843 45.73306358 -1.72195435 43.85047913 C-1.72127396 41.25057931 -1.72311838 38.6506778 -1.72729492 36.05078125 C-1.73087816 33.38241216 -1.73185522 30.71424505 -1.72729492 28.04589844 C-1.72113075 24.20253455 -1.72186221 20.3592357 -1.72485352 16.51586914 C-1.72181717 14.72051979 -1.72181717 14.72051979 -1.71871948 12.88890076 C-1.72187164 11.78087601 -1.7250238 10.67285126 -1.72827148 9.53125 C-1.72906708 8.55514267 -1.72986267 7.57903534 -1.73068237 6.573349 C-1.75502086 3.97663015 -1.75502086 3.97663015 -2.85766602 1.11352539 C-1.85766602 0.11352539 -1.85766602 0.11352539 0 0 Z " fill="#EA923C" transform="translate(162.857666015625,79.886474609375)"/>
<path d="M0 0 C0.78299973 -0.0065712 1.56599945 -0.0131424 2.37272644 -0.01991272 C4.94941322 -0.03953056 7.526042 -0.05128302 10.1027832 -0.0612793 C10.98822123 -0.06535482 11.87365925 -0.06943035 12.78592873 -0.07362938 C17.47349433 -0.09444194 22.16103109 -0.10876392 26.84863281 -0.11816406 C31.66565604 -0.12921344 36.48221546 -0.16361023 41.29907513 -0.20333576 C45.02509869 -0.22960109 48.75101337 -0.2378647 52.47712135 -0.24144554 C54.25156598 -0.24628652 56.02600656 -0.25782863 57.80035973 -0.27648354 C70.63946922 -0.40307252 81.57148231 0.03816127 91.31762695 9.46606445 C91.86161133 10.03067383 92.4055957 10.5952832 92.96606445 11.17700195 C93.72918945 11.94012695 94.49231445 12.70325195 95.27856445 13.48950195 C99.72206435 20.56618698 99.96606445 26.81740705 99.96606445 35.17700195 C90.06606445 35.67200195 90.06606445 35.67200195 79.96606445 36.17700195 C78.31606445 33.53700195 76.66606445 30.89700195 74.96606445 28.17700195 C67.57602587 20.64484725 60.22684998 18.86392514 49.817276 18.7088623 C48.69204025 18.70866089 47.5668045 18.70845947 46.4074707 18.70825195 C45.2231395 18.70063843 44.03880829 18.6930249 42.81858826 18.68518066 C40.32504372 18.67442125 37.83145428 18.67150953 35.33789062 18.67602539 C31.54325623 18.67699819 27.75064223 18.63531336 23.95629883 18.59106445 C21.5233603 18.58585699 19.0904148 18.58316927 16.6574707 18.58325195 C15.53425919 18.56685669 14.41104767 18.55046143 13.25379944 18.53356934 C4.87802801 18.60631963 -1.91678014 20.36239316 -8.18162537 26.16687012 C-14.34857866 32.66226282 -16.47111806 38.97162642 -16.5456543 47.7355957 C-16.5636055 48.52474869 -16.5815567 49.31390167 -16.60005188 50.12696838 C-16.65380083 52.62276016 -16.6879352 55.11836468 -16.72143555 57.61450195 C-16.75464004 59.31700178 -16.78913257 61.019477 -16.82495117 62.72192383 C-16.90950621 66.87348059 -16.97648466 71.02498525 -17.03393555 75.17700195 C-17.69393555 75.17700195 -18.35393555 75.17700195 -19.03393555 75.17700195 C-19.03393555 74.18700195 -19.03393555 73.19700195 -19.03393555 72.17700195 C-19.69393555 72.17700195 -20.35393555 72.17700195 -21.03393555 72.17700195 C-21.03393555 73.16700195 -21.03393555 74.15700195 -21.03393555 75.17700195 C-21.69393555 75.17700195 -22.35393555 75.17700195 -23.03393555 75.17700195 C-23.36393555 76.16700195 -23.69393555 77.15700195 -24.03393555 78.17700195 C-24.03393555 71.90700195 -24.03393555 65.63700195 -24.03393555 59.17700195 C-27.33393555 59.17700195 -30.63393555 59.17700195 -34.03393555 59.17700195 C-35.12045613 52.0306999 -35.28727475 44.96106269 -35.34643555 37.73950195 C-35.37543945 36.56323242 -35.40444336 35.38696289 -35.43432617 34.17504883 C-35.48729662 26.88550005 -34.67550965 21.5220518 -31.03393555 15.17700195 C-30.45643555 14.12512695 -29.87893555 13.07325195 -29.28393555 11.98950195 C-21.50784217 2.26938523 -12.00492641 0.04434643 0 0 Z " fill="#6B4C9D" transform="translate(80.033935546875,44.822998046875)"/>
<path d="M0 0 C1.18953278 -0.00287018 2.37906555 -0.00574036 3.60464478 -0.00869751 C6.11436439 -0.0107339 8.62410004 -0.00523389 11.13378906 0.00732422 C14.95674518 0.0233544 18.7786395 0.00747461 22.6015625 -0.01171875 C25.04687732 -0.00973569 27.49219148 -0.00589072 29.9375 0 C31.63947037 -0.00910904 31.63947037 -0.00910904 33.37582397 -0.0184021 C42.45515683 0.06125382 50.02034323 1.22770043 56.9140625 7.5234375 C57.71457031 8.22726563 58.51507813 8.93109375 59.33984375 9.65625 C65.57137787 17.21158152 66.19050809 24.71306915 66.09765625 34.24609375 C66.09911148 35.45736435 66.10056671 36.66863495 66.10206604 37.91661072 C66.10041308 40.46567197 66.08891992 43.01474382 66.06811523 45.5637207 C66.039126 49.45241911 66.04752784 53.33975519 66.06054688 57.22851562 C66.05430964 59.71354825 66.04591882 62.1985766 66.03515625 64.68359375 C66.03809189 65.83900162 66.04102753 66.99440948 66.04405212 68.18482971 C65.92539156 78.39590373 63.80499121 84.87689869 56.72265625 92.4140625 C50.93262579 97.83088658 45.03836099 99.49187415 37.21972656 99.57543945 C36.16803284 99.58827469 35.11633911 99.60110992 34.03277588 99.61433411 C32.34205963 99.62541451 32.34205963 99.62541451 30.6171875 99.63671875 C29.44702087 99.6447905 28.27685425 99.65286224 27.07122803 99.66117859 C24.59665396 99.67499445 22.12206104 99.68572774 19.64746094 99.69360352 C17.12396642 99.70512706 14.60049634 99.72558452 12.07714844 99.75512695 C8.42366023 99.79789274 4.77089525 99.81398546 1.1171875 99.82421875 C-0.00185974 99.84172684 -1.12090698 99.85923492 -2.27386475 99.87727356 C-12.30982173 99.8496866 -19.32232866 97.08811224 -26.671875 90.265625 C-31.69380847 84.83466528 -33.49336479 79.24161313 -33.59130859 71.96240234 C-33.60737152 70.87381927 -33.62343445 69.78523621 -33.63998413 68.66366577 C-33.68467743 63.68252328 -33.72551105 58.70151129 -33.74853516 53.72021484 C-33.76506951 51.09968164 -33.79232569 48.47919306 -33.83056641 45.85888672 C-33.88557462 42.0671464 -33.90724873 38.27646164 -33.921875 34.484375 C-33.94454437 33.32360443 -33.96721375 32.16283386 -33.99057007 30.96688843 C-33.96781142 22.12310195 -31.93063243 15.58589828 -26.1875 8.77734375 C-25.47335938 8.17792969 -24.75921875 7.57851562 -24.0234375 6.9609375 C-23.31445312 6.34347656 -22.60546875 5.72601563 -21.875 5.08984375 C-14.65709465 0.16026486 -8.56545772 -0.04567982 0 0 Z M-20.2734375 16.3984375 C-23.27689682 20.63861536 -24.64611465 23.28089232 -24.6730957 28.51489258 C-24.68262772 29.53307571 -24.69215973 30.55125885 -24.70198059 31.60029602 C-24.70106918 32.69512802 -24.70015778 33.78996002 -24.69921875 34.91796875 C-24.70350388 36.04990158 -24.707789 37.18183441 -24.71220398 38.34806824 C-24.7179463 40.74286226 -24.71844827 43.13767372 -24.71411133 45.5324707 C-24.71095844 49.18666588 -24.73438826 52.84004595 -24.75976562 56.49414062 C-24.7620394 58.82291565 -24.76274175 61.15169284 -24.76171875 63.48046875 C-24.7709285 64.56922806 -24.78013824 65.65798737 -24.78962708 66.77973938 C-24.73910025 75.11576724 -23.41719998 81.20771038 -17.3984375 87.3984375 C-11.66585903 91.29403753 -5.77512788 90.88285482 0.90234375 90.90234375 C2.09329147 90.91232895 3.2842392 90.92231415 4.51127625 90.93260193 C7.02693211 90.94776498 9.54264809 90.95482829 12.05834961 90.9543457 C15.89083205 90.96089778 19.72071096 91.01537999 23.55273438 91.07226562 C26.00259535 91.08107026 28.45246858 91.08702275 30.90234375 91.08984375 C32.04012772 91.1114003 33.17791168 91.13295685 34.35017395 91.15516663 C41.97058773 91.09010708 46.88117784 89.54243872 52.6015625 84.3984375 C56.007807 79.92774159 56.71471254 75.81964272 56.79443359 70.29785156 C56.81852798 68.7754184 56.81852798 68.7754184 56.84310913 67.222229 C56.88778388 62.58793985 56.92861866 57.95379027 56.95166016 53.31933594 C56.9682138 50.87913472 56.99549564 48.43898186 57.03369141 45.99902344 C57.08860157 42.47044868 57.11035642 38.94300761 57.125 35.4140625 C57.15900406 33.78866547 57.15900406 33.78866547 57.19369507 32.13043213 C57.17458978 25.24213047 56.08467491 20.72167124 51.6015625 15.3984375 C45.09237729 9.05615448 37.96113387 9.08095029 29.359375 9.0625 C28.27703583 9.0558432 27.19469666 9.0491864 26.07955933 9.04232788 C23.79508152 9.03222476 21.51057434 9.02751013 19.22607422 9.02783203 C15.74526991 9.02346099 12.26573633 8.9871207 8.78515625 8.94921875 C6.55990014 8.94334958 4.33463805 8.93938086 2.109375 8.9375 C1.07579865 8.92312897 0.04222229 8.90875793 -1.02267456 8.89395142 C-8.81037097 8.94279589 -15.00412307 10.35646288 -20.2734375 16.3984375 Z " fill="#FCFBFB" transform="translate(96.3984375,62.6015625)"/>
<path d="M0 0 C6.12196611 4.01958273 10.29248302 8.79873274 12 16 C12.92883386 23.63412974 12.95098996 30.47360815 8.61328125 37.03515625 C3.93189587 42.73669825 -1.51285535 47.78145465 -9 49 C-16.73783643 49.40260316 -22.84093379 48.51519873 -29.0625 43.74609375 C-34.51651191 38.83088543 -38.49759601 34.3312512 -39.37109375 26.80078125 C-39.54291411 17.77515875 -38.50029107 11.03476745 -32.35546875 4.16015625 C-23.28671959 -4.21257153 -10.98106726 -5.65142839 0 0 Z " fill="#FAF7F7" transform="translate(126,90)"/>
<path d="M0 0 C0.79075928 0.00523682 1.58151855 0.01047363 2.39624023 0.01586914 C3.67724609 0.02070312 3.67724609 0.02070312 4.98413086 0.02563477 C5.88196289 0.03401367 6.77979492 0.04239258 7.70483398 0.05102539 C8.6065332 0.05553711 9.50823242 0.06004883 10.43725586 0.06469727 C12.67234712 0.07652315 14.90730835 0.09300319 17.14233398 0.11352539 C17.25873818 9.68495957 17.34730578 19.25614606 17.40139484 28.82813644 C17.42736918 33.27394558 17.46254125 37.71926661 17.51953125 42.16479492 C17.57428985 46.46369397 17.60384573 50.76212677 17.6167202 55.06134796 C17.62588217 56.69266336 17.64377126 58.32395636 17.67098427 59.9550705 C17.86298399 71.95223134 16.75441776 82.30327301 8.39233398 91.61352539 C2.97183018 96.53288828 -3.50088556 99.60026164 -10.85766602 100.11352539 C-13.23266602 99.67602539 -13.23266602 99.67602539 -14.85766602 99.11352539 C-14.52766602 98.12352539 -14.19766602 97.13352539 -13.85766602 96.11352539 C-12.86766602 96.11352539 -11.87766602 96.11352539 -10.85766602 96.11352539 C-10.52766602 94.79352539 -10.19766602 93.47352539 -9.85766602 92.11352539 C-7.54766602 92.11352539 -5.23766602 92.11352539 -2.85766602 92.11352539 C-2.89843262 91.3573291 -2.93919922 90.60113281 -2.98120117 89.82202148 C-3.16018576 86.37802015 -3.32158752 82.93340872 -3.48266602 79.48852539 C-3.54711914 78.2987207 -3.61157227 77.10891602 -3.67797852 75.88305664 C-3.75532227 74.15249023 -3.75532227 74.15249023 -3.83422852 72.38696289 C-3.91278076 70.80020752 -3.91278076 70.80020752 -3.99291992 69.18139648 C-3.85766602 66.11352539 -3.85766602 66.11352539 -2.86439514 63.28266907 C-1.85078413 60.09186149 -1.60986513 57.67022745 -1.61474609 54.33935547 C-1.61166946 53.22832962 -1.60859283 52.11730377 -1.60542297 50.97261047 C-1.61260849 49.78805771 -1.61979401 48.60350494 -1.62719727 47.38305664 C-1.62765549 46.15568283 -1.62811371 44.92830902 -1.62858582 43.66374207 C-1.63160101 41.07578562 -1.63946534 38.48783088 -1.65185547 35.89990234 C-1.67014757 31.93002936 -1.67236479 27.96038931 -1.67211914 23.99047852 C-1.67703329 21.47550253 -1.68286116 18.96052813 -1.68969727 16.44555664 C-1.69081009 15.25493118 -1.69192291 14.06430573 -1.69306946 12.83760071 C-1.69944931 11.73603134 -1.70582916 10.63446198 -1.71240234 9.49951172 C-1.71621414 8.5294368 -1.72002594 7.55936188 -1.72395325 6.55989075 C-1.75730301 3.9746463 -1.75730301 3.9746463 -2.85766602 1.11352539 C-1.85766602 0.11352539 -1.85766602 0.11352539 0 0 Z " fill="#E92570" transform="translate(162.857666015625,79.886474609375)"/>
<path d="M0 0 C1.9375 0.6875 1.9375 0.6875 2.9375 2.6875 C3.05218349 4.16124991 3.10688698 5.63990111 3.13037109 7.11791992 C3.14643402 8.03615036 3.16249695 8.9543808 3.17904663 9.9004364 C3.22355409 14.11175807 3.26458228 18.32292172 3.28759766 22.53442383 C3.30413328 24.75262969 3.33139141 26.9707828 3.36962891 29.1887207 C3.42453833 32.39041737 3.44629605 35.5908639 3.4609375 38.79296875 C3.48360687 39.77863327 3.50627625 40.76429779 3.52963257 41.77983093 C3.51304555 47.21559682 3.05366699 51.03180839 -0.55134583 55.24850464 C-6.97646394 61.36681826 -12.96280931 61.29097296 -21.49609375 61.25390625 C-22.6879982 61.26010483 -23.87990265 61.26630341 -25.10792542 61.27268982 C-27.62182806 61.27977552 -30.13577775 61.27663596 -32.6496582 61.26391602 C-36.48411922 61.2500574 -40.31613566 61.28413709 -44.15039062 61.32226562 C-46.59895893 61.32321696 -49.04753027 61.32135723 -51.49609375 61.31640625 C-52.63590195 61.32966446 -53.77571014 61.34292267 -54.95005798 61.35658264 C-61.89631428 61.27581939 -66.75124543 60.35386706 -72.0625 55.6875 C-75.63797807 51.37859053 -76.10296148 49.4447311 -77.0625 43.6875 C-69.1425 43.1925 -69.1425 43.1925 -61.0625 42.6875 C-61.0625 39.0575 -61.0625 35.4275 -61.0625 31.6875 C-60.0415625 32.739375 -60.0415625 32.739375 -59 33.8125 C-51.50147852 41.28971886 -46.29613636 45.08186835 -35.46875 45.7890625 C-29.95330906 45.62461128 -24.38321578 44.08726693 -20.45703125 40.02734375 C-19.99683594 39.58519531 -19.53664062 39.14304688 -19.0625 38.6875 C-16.375 39 -16.375 39 -14.0625 39.6875 C-13.7325 38.3675 -13.4025 37.0475 -13.0625 35.6875 C-9.5975 35.1925 -9.5975 35.1925 -6.0625 34.6875 C-5.29533149 31.83671909 -5.29533149 31.83671909 -5.0625 28.6875 C-6.37568262 26.78791919 -6.37568262 26.78791919 -8.0625 25.6875 C-7.4025 25.6875 -6.7425 25.6875 -6.0625 25.6875 C-5.7325 23.0475 -5.4025 20.4075 -5.0625 17.6875 C-6.5475 18.1825 -6.5475 18.1825 -8.0625 18.6875 C-7.5675 17.2025 -7.5675 17.2025 -7.0625 15.6875 C-6.4025 16.0175 -5.7425 16.3475 -5.0625 16.6875 C-5.22298828 15.54861328 -5.22298828 15.54861328 -5.38671875 14.38671875 C-5.50660156 13.39285156 -5.62648438 12.39898437 -5.75 11.375 C-5.87761719 10.38886719 -6.00523437 9.40273437 -6.13671875 8.38671875 C-6.0625 5.6875 -6.0625 5.6875 -4.58203125 3.83203125 C-4.08058594 3.45433594 -3.57914062 3.07664062 -3.0625 2.6875 C-3.5575 1.6975 -3.5575 1.6975 -4.0625 0.6875 C-2.0625 -0.3125 -2.0625 -0.3125 0 0 Z " fill="#EC4B3A" transform="translate(149.0625,92.3125)"/>
<path d="M0 0 C4.69327902 2.65657303 7.56838922 5.64266766 9.3125 10.875 C9.87634129 16.56762838 9.61969906 21.02444138 6.3125 25.875 C0.88824029 31.21247156 -3.0545418 32.40058869 -10.5625 32.35546875 C-15.69663566 31.56609539 -18.50968964 28.82646576 -21.6875 24.875 C-24.35109906 20.65763482 -24.33819384 15.73017715 -23.6875 10.875 C-22.01370889 5.55700546 -18.61595317 2.44319816 -13.83203125 -0.24609375 C-8.97954941 -2.23481581 -4.98665722 -1.52135305 0 0 Z " fill="#EC2A4B" transform="translate(119.6875,97.125)"/>
<path d="M0 0 C0.97483841 -0.00953201 1.94967682 -0.01906403 2.95405579 -0.02888489 C3.99684189 -0.02797348 5.03962799 -0.02706207 6.11401367 -0.02612305 C7.73964485 -0.03255074 7.73964485 -0.03255074 9.39811707 -0.03910828 C11.68858137 -0.04484461 13.97906388 -0.04535698 16.26953125 -0.04101562 C19.75902731 -0.03786254 23.24766966 -0.06130059 26.73706055 -0.08666992 C28.96687719 -0.08894378 31.1966961 -0.08964601 33.42651367 -0.08862305 C34.98158379 -0.10243767 34.98158379 -0.10243767 36.56806946 -0.11653137 C43.41173198 -0.07322348 49.67629387 0.40540623 55.06323242 5.09887695 C55.52729492 5.71375977 55.99135742 6.32864258 56.46948242 6.9621582 C56.95416992 7.58477539 57.43885742 8.20739258 57.93823242 8.84887695 C58.27854492 9.31938477 58.61885742 9.78989258 58.96948242 10.2746582 C58.63948242 10.9346582 58.30948242 11.5946582 57.96948242 12.2746582 C56.64948242 11.6146582 55.32948242 10.9546582 53.96948242 10.2746582 C53.86635742 11.3677832 53.76323242 12.4609082 53.65698242 13.5871582 C52.96948242 17.2746582 52.96948242 17.2746582 51.78198242 19.2121582 C49.02652563 20.82742598 47.09274656 20.73013422 43.96948242 20.2746582 C41.50214342 18.0540531 41.00795797 16.83896617 40.78198242 13.5246582 C40.87479492 12.4109082 40.87479492 12.4109082 40.96948242 11.2746582 C39.97948242 10.9446582 38.98948242 10.6146582 37.96948242 10.2746582 C37.96948242 9.6146582 37.96948242 8.9546582 37.96948242 8.2746582 C36.48939833 8.38828082 35.01038168 8.51588729 33.53198242 8.6496582 C32.70827148 8.71926758 31.88456055 8.78887695 31.03588867 8.8605957 C30.35397461 8.99723633 29.67206055 9.13387695 28.96948242 9.2746582 C28.63948242 9.9346582 28.30948242 10.5946582 27.96948242 11.2746582 C22.68948242 11.2746582 17.40948242 11.2746582 11.96948242 11.2746582 C11.96948242 10.2846582 11.96948242 9.2946582 11.96948242 8.2746582 C1.339913 7.66017208 1.339913 7.66017208 -8.35083008 10.86450195 C-9.79820687 12.73124905 -9.79820687 12.73124905 -10.92895508 14.68481445 C-12.03051758 16.2746582 -12.03051758 16.2746582 -15.40551758 17.2121582 C-16.70489258 17.2430957 -16.70489258 17.2430957 -18.03051758 17.2746582 C-18.03051758 18.2027832 -18.03051758 19.1309082 -18.03051758 20.0871582 C-18.03051758 24.30368259 -18.29169387 28.11877483 -19.03051758 32.2746582 C-19.36051758 32.2746582 -19.69051758 32.2746582 -20.03051758 32.2746582 C-20.94541086 13.24487804 -20.94541086 13.24487804 -16.45629883 7.6809082 C-11.49113905 2.78376432 -7.08982713 0.03829443 0 0 Z " fill="#AB3992" transform="translate(92.030517578125,71.725341796875)"/>
<path d="M0 0 C1.43655854 -0.08131463 2.8744483 -0.13933559 4.3125 -0.1875 C5.51326172 -0.23970703 5.51326172 -0.23970703 6.73828125 -0.29296875 C9 0 9 0 10.72265625 1.28515625 C12.67941891 3.91212508 13.18648707 6.86216441 14 10 C15.11166864 11.33187793 15.11166864 11.33187793 17.9375 11.1875 C21.10892859 11.33278733 21.10892859 11.33278733 23 9 C23.46006346 6.79749008 23.46006346 6.79749008 23.625 4.375 C23.69976562 3.55773437 23.77453125 2.74046875 23.8515625 1.8984375 C23.90054688 1.27195312 23.94953125 0.64546875 24 0 C24.66 0.66 25.32 1.32 26 2 C26.66 1.67 27.32 1.34 28 1 C30.51206711 3.23608742 31.86978824 5.10211011 32.35754395 8.46548462 C32.46295871 11.60483897 32.44895266 14.72264962 32.390625 17.86328125 C32.38496521 19.01040085 32.37930542 20.15752045 32.37347412 21.33940125 C32.35111197 24.99752813 32.30091327 28.65466994 32.25 32.3125 C32.22993491 34.79490771 32.21168416 37.2773308 32.1953125 39.75976562 C32.15124759 45.84017895 32.08433594 51.92001909 32 58 C31.67 58 31.34 58 31 58 C30.67 43.15 30.34 28.3 30 13 C28.35 13.33 26.7 13.66 25 14 C25.495 14.99 25.495 14.99 26 16 C25.50886719 16.38800781 25.01773438 16.77601562 24.51171875 17.17578125 C22.49274247 19.61211696 22.69101195 21.06930672 22.8125 24.1875 C22.83957031 25.08855469 22.86664063 25.98960938 22.89453125 26.91796875 C22.92933594 27.60503906 22.96414062 28.29210937 23 29 C22.01 29.495 22.01 29.495 21 30 C21.66 30 22.32 30 23 30 C23.07427838 33.34252724 23.06546953 35.8035914 22 39 C22.66 39.66 23.32 40.32 24 41 C23.625 44.625 23.625 44.625 23 48 C20.36 48 17.72 48 15 48 C15 49.65 15 51.3 15 53 C13.35 52.34 11.7 51.68 10 51 C10.433125 50.36835938 10.86625 49.73671875 11.3125 49.0859375 C16.09891773 41.39664605 17.36305436 34.97951078 16 26 C13.80716341 18.56037633 9.75544151 13.73705275 3 10 C-3.39969013 7.23934935 -10.15390817 7.81469225 -17 8 C-17 6.35 -17 4.7 -17 3 C-11.72 3 -6.44 3 -1 3 C-0.67 2.01 -0.34 1.02 0 0 Z " fill="#E81774" transform="translate(121,80)"/>
<path d="M0 0 C0.33 0 0.66 0 1 0 C1 8.25 1 16.5 1 25 C-1.31 25.33 -3.62 25.66 -6 26 C-6.33 26.99 -6.66 27.98 -7 29 C-7.99 29.33 -8.98 29.66 -10 30 C-10.33 30.66 -10.66 31.32 -11 32 C-9.68 32.33 -8.36 32.66 -7 33 C-9.64 33 -12.28 33 -15 33 C-15 31.68 -15 30.36 -15 29 C-20.28 29 -25.56 29 -31 29 C-31 25.7 -31 22.4 -31 19 C-30.01 19 -29.02 19 -28 19 C-28 18.34 -28 17.68 -28 17 C-28.99 16.67 -29.98 16.34 -31 16 C-29.42412109 15.77957031 -29.42412109 15.77957031 -27.81640625 15.5546875 C-16.2435974 13.77340694 -8.50571216 10.83233061 -1.09375 1.3203125 C-0.7328125 0.88460937 -0.371875 0.44890625 0 0 Z " fill="#EE6135" transform="translate(159,147)"/>
<path d="M0 0 C1.18613892 0.00785522 1.18613892 0.00785522 2.39624023 0.01586914 C3.16524658 0.0183667 3.93425293 0.02086426 4.7265625 0.0234375 C5.70939209 0.0325415 6.69222168 0.04164551 7.70483398 0.05102539 C12.37639648 0.08196289 12.37639648 0.08196289 17.14233398 0.11352539 C17.14233398 8.03352539 17.14233398 15.95352539 17.14233398 24.11352539 C16.15233398 24.11352539 15.16233398 24.11352539 14.14233398 24.11352539 C13.81233398 21.80352539 13.48233398 19.49352539 13.14233398 17.11352539 C10.17233398 17.11352539 7.20233398 17.11352539 4.14233398 17.11352539 C3.81233398 19.42352539 3.48233398 21.73352539 3.14233398 24.11352539 C2.81233398 24.11352539 2.48233398 24.11352539 2.14233398 24.11352539 C1.81233398 21.47352539 1.48233398 18.83352539 1.14233398 16.11352539 C0.81233398 29.64352539 0.48233398 43.17352539 0.14233398 57.11352539 C-0.18766602 57.11352539 -0.51766602 57.11352539 -0.85766602 57.11352539 C-0.86797348 56.45619919 -0.87828094 55.79887299 -0.88890076 55.12162781 C-0.99691472 48.29240874 -1.11151698 41.46332298 -1.22998047 34.63427734 C-1.27334568 32.08417545 -1.31501957 29.53404423 -1.35498047 26.98388672 C-1.41264441 23.3225825 -1.47635027 19.66142617 -1.54125977 16.00024414 C-1.55797226 14.85641769 -1.57468475 13.71259125 -1.59190369 12.53410339 C-1.61184891 11.47323013 -1.63179413 10.41235687 -1.65234375 9.31933594 C-1.66788803 8.38445847 -1.68343231 7.44958099 -1.69944763 6.4863739 C-1.7673931 3.96366026 -1.7673931 3.96366026 -2.85766602 1.11352539 C-1.85766602 0.11352539 -1.85766602 0.11352539 0 0 Z " fill="#C93993" transform="translate(162.857666015625,79.886474609375)"/>
<path d="M0 0 C1.4606285 2.64738916 2 3.89448334 2 7 C4.475 6.505 4.475 6.505 7 6 C3.19307013 10.9643481 -0.21244358 14.47452084 -6 17 C-8.75 16.8125 -8.75 16.8125 -11 16 C-11.99 15.67 -12.98 15.34 -14 15 C-13.34 13.68 -12.68 12.36 -12 11 C-28.83 11 -45.66 11 -63 11 C-62.67 11.99 -62.34 12.98 -62 14 C-62.99 14.33 -63.98 14.66 -65 15 C-64.01 16.485 -64.01 16.485 -63 18 C-64.60746056 17.57476184 -66.21089836 17.13429874 -67.8125 16.6875 C-68.70582031 16.44386719 -69.59914063 16.20023438 -70.51953125 15.94921875 C-73.05247738 14.9799181 -74.2716496 14.04990396 -76 12 C-74.68 11.34 -73.36 10.68 -72 10 C-72.33 9.01 -72.66 8.02 -73 7 C-72.34 6.34 -71.68 5.68 -71 5 C-70.26442871 5.48533203 -69.52885742 5.97066406 -68.77099609 6.47070312 C-63.73186127 8.96924124 -58.16361689 8.46778426 -52.6640625 8.46875 C-51.4707431 8.47636353 -50.27742371 8.48397705 -49.04794312 8.49182129 C-46.52807707 8.50260869 -44.00816636 8.50548095 -41.48828125 8.50097656 C-37.64506981 8.50000507 -33.80386053 8.54163016 -29.9609375 8.5859375 C-27.50781665 8.59114544 -25.05468888 8.59383268 -22.6015625 8.59375 C-21.45861725 8.61014526 -20.315672 8.62654053 -19.13809204 8.64343262 C-12.243125 8.58408903 -7.22323216 7.74883658 -2 3 C-1.34 2.01 -0.68 1.02 0 0 Z " fill="#FAF7F3" transform="translate(150,144)"/>
<path d="M0 0 C1.8125 2.125 1.8125 2.125 3 4 C2.67 4.66 2.34 5.32 2 6 C0.68 5.34 -0.64 4.68 -2 4 C-2.103125 5.093125 -2.20625 6.18625 -2.3125 7.3125 C-3 11 -3 11 -4.1875 12.9375 C-6.94295679 14.55276777 -8.87673586 14.45547602 -12 14 C-14.467339 11.7793949 -14.96152446 10.56430797 -15.1875 7.25 C-15.0946875 6.13625 -15.0946875 6.13625 -15 5 C-15.99 4.67 -16.98 4.34 -18 4 C-18 3.34 -18 2.68 -18 2 C-19.4800841 2.11362262 -20.95910074 2.24122908 -22.4375 2.375 C-23.26121094 2.44460937 -24.08492187 2.51421875 -24.93359375 2.5859375 C-25.61550781 2.72257812 -26.29742187 2.85921875 -27 3 C-27.33 3.66 -27.66 4.32 -28 5 C-33.28 5 -38.56 5 -44 5 C-43.67 4.01 -43.34 3.02 -43 2 C-38.05 2 -33.1 2 -28 2 C-28 1.34 -28 0.68 -28 0 C-25.48146969 -0.5351499 -22.96129252 -1.05329429 -20.4375 -1.5625 C-19.38079102 -1.78969727 -19.38079102 -1.78969727 -18.30273438 -2.02148438 C-11.9146829 -3.28731946 -5.88786589 -3.10748478 0 0 Z " fill="#B9358D" transform="translate(148,78)"/>
<path d="M0 0 C0.7811618 -0.00014603 1.56232361 -0.00029205 2.36715698 -0.0004425 C4.93181195 0.00025041 7.49639298 0.00801355 10.06103516 0.01586914 C11.8460791 0.01773553 13.63112357 0.01915839 15.41616821 0.02015686 C20.1014753 0.02396464 24.78675112 0.03378001 29.4720459 0.04486084 C34.2582151 0.05511242 39.04438938 0.0596625 43.83056641 0.06469727 C53.21209052 0.0754039 62.59359148 0.09245935 71.97509766 0.11352539 C71.97509766 0.44352539 71.97509766 0.77352539 71.97509766 1.11352539 C62.55549075 1.80668963 53.23779179 2.20862769 43.79150391 2.05102539 C41.07145179 1.78675629 41.07145179 1.78675629 39.97509766 3.11352539 C38.36406199 3.20170131 36.74916252 3.22044097 35.13574219 3.21118164 C34.10442169 3.20787842 33.0731012 3.2045752 32.01052856 3.20117188 C30.88766449 3.19287354 29.76480042 3.1845752 28.60791016 3.17602539 C27.46224579 3.17223877 26.31658142 3.16845215 25.13619995 3.16455078 C20.21185042 3.14812721 15.28758218 3.12004236 10.36328125 3.09301758 C6.77816142 3.07498521 3.19305494 3.06285516 -0.39208984 3.05102539 C-1.51090546 3.04272705 -2.62972107 3.03442871 -3.78244019 3.02587891 C-4.820065 3.02257568 -5.85768982 3.01927246 -6.92675781 3.01586914 C-7.84085419 3.01063232 -8.75495056 3.00539551 -9.69674683 3 C-12.18277206 3.01634433 -12.18277206 3.01634433 -15.02490234 4.11352539 C-15.35490234 6.42352539 -15.68490234 8.73352539 -16.02490234 11.11352539 C-17.15927734 11.23727539 -18.29365234 11.36102539 -19.46240234 11.48852539 C-21.22583984 11.79790039 -21.22583984 11.79790039 -23.02490234 12.11352539 C-24.17882689 14.42137449 -24.55927401 16.5858287 -25.02490234 19.11352539 C-26.67490234 19.11352539 -28.32490234 19.11352539 -30.02490234 19.11352539 C-30.77490234 17.48852539 -30.77490234 17.48852539 -31.02490234 15.11352539 C-27.89386183 8.85144436 -22.59329673 4.89772258 -16.39990234 1.80102539 C-10.9569348 0.22542952 -5.63289745 -0.02787635 0 0 Z " fill="#3C509F" transform="translate(80.02490234375,44.886474609375)"/>
<path d="M0 0 C18.48 0.33 36.96 0.66 56 1 C56 1.33 56 1.66 56 2 C50.72 2 45.44 2 40 2 C40 2.99 40 3.98 40 5 C41.32 5.33 42.64 5.66 44 6 C44 6.33 44 6.66 44 7 C42.79053711 6.99214478 42.79053711 6.99214478 41.55664062 6.98413086 C37.87110181 6.96322638 34.18557552 6.95029714 30.5 6.9375 C29.2315625 6.92912109 27.963125 6.92074219 26.65625 6.91210938 C20.33916501 6.89565863 14.24189628 6.99908986 8 8 C8 7.34 8 6.68 8 6 C6.2984375 6.2475 6.2984375 6.2475 4.5625 6.5 C1 7 1 7 0 7 C0 4.69 0 2.38 0 0 Z " fill="#EDAD45" transform="translate(80,161)"/>
<path d="M0 0 C13.2 0 26.4 0 40 0 C40 0.66 40 1.32 40 2 C41.65 2 43.3 2 45 2 C45 1.34 45 0.68 45 0 C47.64 0 50.28 0 53 0 C53 0.66 53 1.32 53 2 C54.32 2.33 55.64 2.66 57 3 C57 3.33 57 3.66 57 4 C37.53 4 18.06 4 -2 4 C-1.34 2.68 -0.68 1.36 0 0 Z " fill="#EAC96E" transform="translate(72,176)"/>
<path d="M0 0 C4.89479452 2.77063841 7.64354063 5.55594086 9.25 11.125 C9.270625 12.0325 9.29125 12.94 9.3125 13.875 C7.3125 15.875 7.3125 15.875 5.375 15.9375 C3.3125 14.875 3.3125 14.875 2.18359375 11.38671875 C1.56613281 10.22785156 0.94867188 9.06898437 0.3125 7.875 C-2.63923611 7.06202184 -4.70645849 6.7204782 -7.6875 6.625 C-15.23898847 6.22189563 -15.23898847 6.22189563 -17.6875 4.328125 C-18.0175 3.84859375 -18.3475 3.3690625 -18.6875 2.875 C-12.07162244 -1.53558504 -7.64000576 -2.33084922 0 0 Z " fill="#EB1F5E" transform="translate(119.6875,97.125)"/>
<path d="M0 0 C0.99097687 -0.00630432 1.98195374 -0.01260864 3.00296021 -0.019104 C4.06143158 -0.01505554 5.11990295 -0.01100708 6.21044922 -0.00683594 C7.30606171 -0.00874939 8.40167419 -0.01066284 9.53048706 -0.01263428 C11.84194163 -0.01399317 14.15340391 -0.01031742 16.46484375 -0.00195312 C20.00912517 0.00877087 23.55290208 -0.00186922 27.09716797 -0.01464844 C29.34326284 -0.01332719 31.5893574 -0.01076553 33.83544922 -0.00683594 C34.89796906 -0.0108844 35.96048889 -0.01493286 37.0552063 -0.019104 C38.03987885 -0.01279968 39.02455139 -0.00649536 40.0390625 0 C41.33881516 0.00238678 41.33881516 0.00238678 42.66482544 0.00482178 C44.89013672 0.25878906 44.89013672 0.25878906 47.89013672 2.25878906 C38.91596833 2.97163081 30.13661116 3.34068354 21.13232422 3.09863281 C17.83598002 3.26146427 15.91127242 4.03649752 12.89013672 5.25878906 C10.2620783 5.54746698 7.71102841 5.76282944 5.07763672 5.88378906 C4.38476562 5.92246094 3.69189453 5.96113281 2.97802734 6.00097656 C1.28246657 6.09452474 -0.4136604 6.1777127 -2.10986328 6.25878906 C-2.10986328 5.26878906 -2.10986328 4.27878906 -2.10986328 3.25878906 C-4.0947797 3.5255511 -4.0947797 3.5255511 -6.10986328 4.25878906 C-6.43986328 5.24878906 -6.76986328 6.23878906 -7.10986328 7.25878906 C-9.41986328 6.92878906 -11.72986328 6.59878906 -14.10986328 6.25878906 C-9.9495373 1.63620463 -6.19789531 0.01136054 0 0 Z " fill="#A1479A" transform="translate(92.10986328125,71.7412109375)"/>
<path d="M0 0 C4.875 1.75 4.875 1.75 6 4 C6.06996014 5.70702735 6.08440154 7.41668003 6.0625 9.125 C6.05347656 10.03507812 6.04445312 10.94515625 6.03515625 11.8828125 C6.02355469 12.58148438 6.01195312 13.28015625 6 14 C5.01 14.495 5.01 14.495 4 15 C4.66 15 5.32 15 6 15 C6.07427838 18.34252724 6.06546953 20.8035914 5 24 C5.66 24.66 6.32 25.32 7 26 C6.625 29.625 6.625 29.625 6 33 C3.36 33 0.72 33 -2 33 C-2 34.65 -2 36.3 -2 38 C-3.65 37.34 -5.3 36.68 -7 36 C-6.57847656 35.36835938 -6.15695313 34.73671875 -5.72265625 34.0859375 C-1.02623651 26.41696032 -0.02605488 19.92379579 0 11 C0.66 11 1.32 11 2 11 C2 8.36 2 5.72 2 3 C1.34 3 0.68 3 0 3 C0 2.01 0 1.02 0 0 Z " fill="#E81D70" transform="translate(138,95)"/>
<path d="M0 0 C1.875 0.3125 1.875 0.3125 4 1 C4.66 1.99 5.32 2.98 6 4 C6.66 3.67 7.32 3.34 8 3 C6.36865952 8.98158177 2.0177499 13.25536334 -3.25 16.30078125 C-8.65051851 18.80946806 -14.10167818 21.04172678 -20 19 C-19.505 17.515 -19.505 17.515 -19 16 C-18.01 16 -17.02 16 -16 16 C-15.67 14.68 -15.34 13.36 -15 12 C-12.69 12 -10.38 12 -8 12 C-7.67 10.68 -7.34 9.36 -7 8 C-4.66666667 8 -2.33333333 8 0 8 C0 5.36 0 2.72 0 0 Z " fill="#E93262" transform="translate(168,160)"/>
<path d="M0 0 C0.66 0 1.32 0 2 0 C2 10.56 2 21.12 2 32 C1.34 32 0.68 32 0 32 C0 31.01 0 30.02 0 29 C-0.66 29 -1.32 29 -2 29 C-2 29.99 -2 30.98 -2 32 C-2.66 32 -3.32 32 -4 32 C-4.33 32.99 -4.66 33.98 -5 35 C-5.0294191 31.52085157 -5.04693792 28.04173583 -5.0625 24.5625 C-5.07087891 23.58861328 -5.07925781 22.61472656 -5.08789062 21.61132812 C-5.107795 15.65991888 -4.95155675 9.88289487 -4 4 C-3.34 3.67 -2.68 3.34 -2 3 C-1.67 3.66 -1.34 4.32 -1 5 C-0.67 3.35 -0.34 1.7 0 0 Z " fill="#BA4C8D" transform="translate(61,88)"/>
<path d="M0 0 C2.31 0 4.62 0 7 0 C8.35439668 2.70879335 8.06501451 5.00933268 8 8 C10.97 8 13.94 8 17 8 C16.67 10.64 16.34 13.28 16 16 C31.84 16 47.68 16 64 16 C64 16.33 64 16.66 64 17 C56.88349582 17.12720405 49.76728688 17.21452078 42.64990234 17.2746582 C40.23084558 17.29973872 37.81186411 17.33381149 35.39306641 17.37719727 C31.90768816 17.43813045 28.42331536 17.46627563 24.9375 17.48828125 C23.86322754 17.51408768 22.78895508 17.5398941 21.68212891 17.56648254 C14.86134006 17.56900682 10.2242538 16.5416913 5 12 C1.76057675 8.09607967 0.48000511 5.04005364 0 0 Z " fill="#E77B1B" transform="translate(72,136)"/>
<path d="M0 0 C2.17622815 0.37521175 3.88802861 0.93923131 5.83178711 1.99414062 C8.24130769 3.11194546 10.24670679 3.46002217 12.87890625 3.78125 C14.26045898 3.96107422 14.26045898 3.96107422 15.66992188 4.14453125 C17.60215549 4.38198332 19.5344475 4.61896062 21.46679688 4.85546875 C22.38654297 4.97535156 23.30628906 5.09523437 24.25390625 5.21875 C25.09252197 5.32123047 25.9311377 5.42371094 26.79516602 5.52929688 C29 6 29 6 32 8 C31.67 8.66 31.34 9.32 31 10 C26.90658501 10.02469575 22.81319879 10.04285793 18.71972656 10.05493164 C17.32681523 10.0599643 15.9339092 10.06679098 14.54101562 10.07543945 C12.54038754 10.08755152 10.53972112 10.09270412 8.5390625 10.09765625 C7.33459473 10.10289307 6.13012695 10.10812988 4.88916016 10.11352539 C2 10 2 10 0 9 C-0.44921875 7.1875 -0.44921875 7.1875 -0.6875 5 C-0.77386719 4.278125 -0.86023438 3.55625 -0.94921875 2.8125 C-0.96597656 2.214375 -0.98273438 1.61625 -1 1 C-0.67 0.67 -0.34 0.34 0 0 Z " fill="#EB6329" transform="translate(96,134)"/>
<path d="M0 0 C1.45742463 -0.08096803 2.91612807 -0.13917774 4.375 -0.1875 C5.18710938 -0.22230469 5.99921875 -0.25710937 6.8359375 -0.29296875 C7.55007812 -0.19628906 8.26421875 -0.09960938 9 0 C11.1519437 3.22791555 11.20086443 4.28400809 11 8 C10.01 8.33 9.02 8.66 8 9 C8 7.68 8 6.36 8 5 C7.01 6.485 7.01 6.485 6 8 C3.32453754 8.86771756 1.51654248 9.11068767 -1.2421875 8.51953125 C-4.48396965 7.90882725 -7.51585623 7.90420057 -10.8125 7.9375 C-11.97394531 7.94652344 -13.13539062 7.95554687 -14.33203125 7.96484375 C-15.21246094 7.97644531 -16.09289062 7.98804687 -17 8 C-17 6.35 -17 4.7 -17 3 C-11.72 3 -6.44 3 -1 3 C-0.67 2.01 -0.34 1.02 0 0 Z " fill="#D02B85" transform="translate(121,80)"/>
<path d="M0 0 C0.33 0 0.66 0 1 0 C1.12375 0.928125 1.2475 1.85625 1.375 2.8125 C1.81533082 6.13925235 1.81533082 6.13925235 4 9 C3.94140625 12.2578125 3.94140625 12.2578125 3.5625 16.125 C3.1696154 20.56416898 2.90701505 24.81359407 3.5 29.25 C4 33 4 33 3 36 C3.11280772 38.08694273 3.28725152 40.17086709 3.5 42.25 C3.92766808 47.09510045 3.99413267 51.25025503 3 56 C2.01 56 1.02 56 0 56 C0 37.52 0 19.04 0 0 Z " fill="#E85129" transform="translate(45,96)"/>
<path d="M0 0 C2.64 0 5.28 0 8 0 C8.04254356 1.99954746 8.04080783 4.00041636 8 6 C7.67 6.33 7.34 6.66 7 7 C11.455 7.99 11.455 7.99 16 9 C16 11.31 16 13.62 16 16 C17.423125 15.938125 17.423125 15.938125 18.875 15.875 C22 16 22 16 24 18 C23.67 18.33 23.34 18.66 23 19 C15.70864419 18.42812896 10.35614588 15.94413466 5 11 C0 5.12087912 0 5.12087912 0 0 Z " fill="#E9A624" transform="translate(48,160)"/>
<path d="M0 0 C0.91080322 0.4844458 1.82160645 0.9688916 2.76000977 1.46801758 C7.97541372 3.68957319 13.25001883 3.47862867 18.83984375 3.51171875 C19.96193741 3.52966995 21.08403107 3.54762115 22.24012756 3.56611633 C25.80588075 3.6200749 29.37150115 3.65406951 32.9375 3.6875 C35.36264862 3.72068573 37.78777976 3.75517655 40.21289062 3.79101562 C46.14180799 3.87579316 52.07074285 3.94420413 58 4 C58 4.33 58 4.66 58 5 C41.83 5.33 25.66 5.66 9 6 C9.33 6.99 9.66 7.98 10 9 C9.01 9.33 8.02 9.66 7 10 C7.99 11.485 7.99 11.485 9 13 C7.39253944 12.57476184 5.78910164 12.13429874 4.1875 11.6875 C3.29417969 11.44386719 2.40085937 11.20023438 1.48046875 10.94921875 C-1.05247738 9.9799181 -2.2716496 9.04990396 -4 7 C-2.68 6.34 -1.36 5.68 0 5 C-0.33 4.01 -0.66 3.02 -1 2 C-0.67 1.34 -0.34 0.68 0 0 Z " fill="#F9EEDC" transform="translate(78,149)"/>
<path d="M0 0 C0.66 0 1.32 0 2 0 C3.43354006 4.30062019 3.18431214 8.4330541 3.1875 12.9375 C3.19974609 13.84435547 3.21199219 14.75121094 3.22460938 15.68554688 C3.22654297 16.56146484 3.22847656 17.43738281 3.23046875 18.33984375 C3.23457764 19.13769287 3.23868652 19.93554199 3.24291992 20.75756836 C2.97498466 23.2309205 2.23514985 24.85860446 1 27 C-0.32 27 -1.64 27 -3 27 C-3.0270491 23.93744039 -3.04686298 20.8751214 -3.0625 17.8125 C-3.07087891 16.94818359 -3.07925781 16.08386719 -3.08789062 15.19335938 C-3.10396812 10.99713231 -3.07559038 7.09063114 -2 3 C-1.34 3 -0.68 3 0 3 C0 2.01 0 1.02 0 0 Z " fill="#EC5723" transform="translate(59,117)"/>
<path d="M0 0 C0.66 0.66 1.32 1.32 2 2 C2.66 1.67 3.32 1.34 4 1 C6.51206711 3.23608742 7.86978824 5.10211011 8.35754395 8.46548462 C8.46295871 11.60483897 8.44895266 14.72264962 8.390625 17.86328125 C8.38496521 19.01040085 8.37930542 20.15752045 8.37347412 21.33940125 C8.35111197 24.99752813 8.30091327 28.65466994 8.25 32.3125 C8.22993491 34.79490771 8.21168416 37.2773308 8.1953125 39.75976562 C8.15124759 45.84017895 8.08433594 51.92001909 8 58 C7.67 58 7.34 58 7 58 C6.67 43.15 6.34 28.3 6 13 C3.36 13 0.72 13 -2 13 C-1.34 8.71 -0.68 4.42 0 0 Z " fill="#DC1971" transform="translate(145,80)"/>
<path d="M0 0 C2.64 0.33 5.28 0.66 8 1 C7.67 2.65 7.34 4.3 7 6 C-11.15 5.67 -29.3 5.34 -48 5 C-48 4.67 -48 4.34 -48 4 C-45.36 3.67 -42.72 3.34 -40 3 C-40 2.67 -40 2.34 -40 2 C-26.8 2 -13.6 2 0 2 C0 1.34 0 0.68 0 0 Z " fill="#835EA5" transform="translate(136,58)"/>
<path d="M0 0 C1.875 1.125 1.875 1.125 3 3 C3.39365568 6.14924548 3.52854531 8.11909116 1.875 10.875 C-0.91106042 12.54663625 -2.81988862 12.46376624 -6 12 C-8.35210784 9.88310295 -8.91810953 8.55958485 -9.375 5.4375 C-9 3 -9 3 -7.875 1.1875 C-5.12844028 -0.55198782 -3.18153026 -0.39769128 0 0 Z " fill="#FAF5F9" transform="translate(142,80)"/>
<path d="M0 0 C1.98 0 3.96 0 6 0 C6 5.28 6 10.56 6 16 C4.02 16 2.04 16 0 16 C-1.80411967 13.24075815 -2.0127245 12.11027897 -1.625 8.75 C-1.41875 7.8425 -1.2125 6.935 -1 6 C-1.66 6 -2.32 6 -3 6 C-2.42655063 3.13275314 -2.1385485 2.1385485 0 0 Z " fill="#E6314F" transform="translate(81,104)"/>
<path d="M0 0 C0 0.66 0 1.32 0 2 C-0.99 2.33 -1.98 2.66 -3 3 C-3.33 5.31 -3.66 7.62 -4 10 C-5.134375 10.12375 -6.26875 10.2475 -7.4375 10.375 C-9.2009375 10.684375 -9.2009375 10.684375 -11 11 C-12.15392455 13.3078491 -12.53437166 15.47230331 -13 18 C-14.65 18 -16.3 18 -18 18 C-18.75 16.375 -18.75 16.375 -19 14 C-15.83313511 7.66627022 -10.44392168 3.64709298 -4.125 0.625 C-2 0 -2 0 0 0 Z " fill="#4356A0" transform="translate(68,46)"/>
<path d="M0 0 C0.12375 0.928125 0.12375 0.928125 0.25 1.875 C0.81258459 4.18437567 0.81258459 4.18437567 3.0625 5.25 C3.701875 5.4975 4.34125 5.745 5 6 C4.67 8.31 4.34 10.62 4 13 C1.36 13 -1.28 13 -4 13 C-4 14.65 -4 16.3 -4 18 C-6.475 17.01 -6.475 17.01 -9 16 C-8.59007812 15.25234375 -8.18015625 14.5046875 -7.7578125 13.734375 C-6.94957031 12.25710937 -6.94957031 12.25710937 -6.125 10.75 C-5.59132812 9.77546875 -5.05765625 8.8009375 -4.5078125 7.796875 C-3.60025155 6.11341997 -2.7131398 4.41836621 -1.8671875 2.703125 C-1 1 -1 1 0 0 Z " fill="#EB204E" transform="translate(140,115)"/>
<path d="M0 0 C4.62 0 9.24 0 14 0 C10 4 10 4 7.5 5.875 C4.67280226 8.27811808 2.98236197 10.88485976 1 14 C0.67 14 0.34 14 0 14 C0 9.38 0 4.76 0 0 Z " fill="#DF236D" transform="translate(88,88)"/>
<path d="M0 0 C2.475 0.99 2.475 0.99 5 2 C4.2265625 3.175625 4.2265625 3.175625 3.4375 4.375 C2.963125 5.24125 2.48875 6.1075 2 7 C2.33 7.66 2.66 8.32 3 9 C-2.31329355 11.08989546 -6.28728072 12.6112798 -12 11 C-11.67 10.01 -11.34 9.02 -11 8 C-10.01 8 -9.02 8 -8 8 C-7.67 6.68 -7.34 5.36 -7 4 C-4.69 4 -2.38 4 0 4 C0 2.68 0 1.36 0 0 Z " fill="#E7445A" transform="translate(160,168)"/>
<path d="M0 0 C1.98 0 3.96 0 6 0 C6 5.28 6 10.56 6 16 C5.67 15.01 5.34 14.02 5 13 C4.34 13 3.68 13 3 13 C3 13.99 3 14.98 3 16 C2.34 16 1.68 16 1 16 C0.67 16.99 0.34 17.98 0 19 C0 12.73 0 6.46 0 0 Z " fill="#E13A41" transform="translate(56,104)"/>
<path d="M0 0 C3.00231053 -0.05886883 5.99756216 -0.04541503 9 0 C9.94875 0 10.8975 0 11.875 0 C14.49829313 1.23449089 14.75733129 2.06796395 15.875 4.6875 C17.07686987 8.41396804 17.05104067 11.17803392 16 15 C15.505 14.319375 15.01 13.63875 14.5 12.9375 C10.26192942 7.95776707 5.25515704 3.87098621 0 0 Z " fill="#8A4B9A" transform="translate(144,64)"/>
<path d="M0 0 C-3.70103827 1.23367942 -6.17533441 0.5463808 -10 0 C-10.99 0.33 -11.98 0.66 -13 1 C-15.13794525 1.0833804 -17.27842009 1.10733747 -19.41796875 1.09765625 C-20.67158203 1.09443359 -21.92519531 1.09121094 -23.21679688 1.08789062 C-24.52712891 1.07951172 -25.83746094 1.07113281 -27.1875 1.0625 C-28.52278481 1.05748317 -29.85807141 1.05292059 -31.19335938 1.04882812 C-34.46228473 1.03702695 -37.73111991 1.02056297 -41 1 C-38.74347354 -1.25652646 -37.17227792 -1.94326544 -33.98217773 -2.09765625 C-33.22364502 -2.08605469 -32.4651123 -2.07445313 -31.68359375 -2.0625 C-30.84135254 -2.05436279 -29.99911133 -2.04622559 -29.13134766 -2.0378418 C-28.24237793 -2.025354 -27.3534082 -2.01286621 -26.4375 -2 C-20.93718885 -1.94365439 -15.58355231 -1.90770681 -10.125 -2.6875 C-6.00694559 -3.2278121 -3.52277284 -2.31761371 0 0 Z " fill="#A83F94" transform="translate(146,76)"/>
<path d="M0 0 C0.33 0.66 0.66 1.32 1 2 C1.66 2 2.32 2 3 2 C3.33 3.65 3.66 5.3 4 7 C5.32 7.33 6.64 7.66 8 8 C7.67 9.65 7.34 11.3 7 13 C8.32 12.01 9.64 11.02 11 10 C10.67 12.31 10.34 14.62 10 17 C6.34055054 16.74468957 4.17573365 16.11217042 1.0625 14.125 C-2.0280147 9.44240198 -0.94548909 5.34528981 0 0 Z " fill="#EC333B" transform="translate(100,112)"/>
<path d="M0 0 C0.33 0 0.66 0 1 0 C1 4.29 1 8.58 1 13 C-7.42857143 14.28571429 -7.42857143 14.28571429 -12 13 C-11.319375 12.34 -10.63875 11.68 -9.9375 11 C-6.93093537 8.01066497 -4.19821266 4.80268054 -1.453125 1.57421875 C-0.97359375 1.05472656 -0.4940625 0.53523437 0 0 Z " fill="#EB3D43" transform="translate(159,147)"/>
<path d="M0 0 C0.79953138 3.28696233 1.09658936 4.71023192 0 8 C-1.65 8 -3.3 8 -5 8 C-5.33 9.65 -5.66 11.3 -6 13 C-7.32 12.01 -8.64 11.02 -10 10 C-10.33 11.32 -10.66 12.64 -11 14 C-12.32 14.33 -13.64 14.66 -15 15 C-12.41348948 8.99929559 -7.64554341 0 0 0 Z " fill="#F5FAFC" transform="translate(103,89)"/>
<path d="M0 0 C2.31 0 4.62 0 7 0 C7.98120464 3.05263664 7.98120464 4.94736336 7 8 C6.34 8 5.68 8 5 8 C4.67 10.64 4.34 13.28 4 16 C3.34 14.68 2.68 13.36 2 12 C1.34 12 0.68 12 0 12 C0 8.04 0 4.08 0 0 Z " fill="#9E3696" transform="translate(56,80)"/>
<path d="M0 0 C16.335 0.495 16.335 0.495 33 1 C32.67 1.66 32.34 2.32 32 3 C31.26362305 3.02505615 30.52724609 3.0501123 29.76855469 3.07592773 C26.42886622 3.19204273 23.08944903 3.31469918 19.75 3.4375 C18.59113281 3.47681641 17.43226562 3.51613281 16.23828125 3.55664062 C14.56572266 3.61948242 14.56572266 3.61948242 12.859375 3.68359375 C11.31975098 3.73858032 11.31975098 3.73858032 9.74902344 3.79467773 C7.05573277 3.91061517 7.05573277 3.91061517 4.74316406 4.60180664 C4.16791992 4.73321045 3.59267578 4.86461426 3 5 C1.25 3.6875 1.25 3.6875 0 2 C0 1.34 0 0.68 0 0 Z " fill="#5E4EA5" transform="translate(80,56)"/>
<path d="M0 0 C2.64 0 5.28 0 8 0 C8.64165788 5.26159459 7.20577001 7.68592849 4.09375 11.6796875 C3.7328125 12.11539063 3.371875 12.55109375 3 13 C0.75393573 11.22555028 0.04918998 10.41647515 -0.29296875 7.51953125 C-0.25816406 6.62621094 -0.22335938 5.73289063 -0.1875 4.8125 C-0.16042969 3.91144531 -0.13335937 3.01039063 -0.10546875 2.08203125 C-0.07066406 1.39496094 -0.03585938 0.70789063 0 0 Z " fill="#EB4135" transform="translate(144,136)"/>
<path d="M0 0 C0.33 0 0.66 0 1 0 C1.12117187 0.91523437 1.24234375 1.83046875 1.3671875 2.7734375 C1.53476563 3.96195312 1.70234375 5.15046875 1.875 6.375 C2.03742188 7.55835937 2.19984375 8.74171875 2.3671875 9.9609375 C2.7302585 13.09566659 2.7302585 13.09566659 5 15 C5.265625 17.2421875 5.265625 17.2421875 5.25 19.875 C5.25515625 20.73867187 5.2603125 21.60234375 5.265625 22.4921875 C4.98890649 25.10473577 4.3185995 26.7500088 3 29 C2.87625 28.360625 2.7525 27.72125 2.625 27.0625 C2.41875 26.381875 2.2125 25.70125 2 25 C1.34 24.67 0.68 24.34 0 24 C0 16.08 0 8.16 0 0 Z " fill="#E61C82" transform="translate(163,88)"/>
<path d="M0 0 C0.33 0 0.66 0 1 0 C1 7.92 1 15.84 1 24 C1.66 24 2.32 24 3 24 C4.25664978 26.90600261 5 28.79604584 5 32 C2.69 32 0.38 32 -2 32 C-1.84660156 31.11183594 -1.69320312 30.22367188 -1.53515625 29.30859375 C-0.71870573 23.59344011 -0.63734276 17.82517907 -0.4375 12.0625 C-0.39431641 10.90169922 -0.35113281 9.74089844 -0.30664062 8.54492188 C-0.20115158 5.69671768 -0.09903445 2.84843471 0 0 Z " fill="#E9215F" transform="translate(163,112)"/>
<path d="M0 0 C0.33 0 0.66 0 1 0 C1.12375 0.928125 1.2475 1.85625 1.375 2.8125 C1.81533082 6.13925235 1.81533082 6.13925235 4 9 C4.13035016 16.74497205 2.74888197 24.47810959 1 32 C0.67 32 0.34 32 0 32 C0 21.44 0 10.88 0 0 Z " fill="#B7366E" transform="translate(45,96)"/>
<path d="M0 0 C2.69689886 3.2658187 4.59239923 5.99375166 6 10 C6.33 10.66 6.66 11.32 7 12 C6.01 12 5.02 12 4 12 C5.2375 12.7115625 5.2375 12.7115625 6.5 13.4375 C7.325 13.953125 8.15 14.46875 9 15 C9 15.33 9 15.66 9 16 C5.625 16.125 5.625 16.125 2 16 C0 14 0 14 -0.1953125 10.7421875 C-0.17210937 9.46601563 -0.14890625 8.18984375 -0.125 6.875 C-0.10695312 5.59367188 -0.08890625 4.31234375 -0.0703125 2.9921875 C-0.04710937 2.00476563 -0.02390625 1.01734375 0 0 Z " fill="#E88D23" transform="translate(64,144)"/>
<path d="M0 0 C3.26008643 3.16952847 6.22237877 6.39937989 9 10 C7 12 7 12 3.9375 12.1875 C1 12 1 12 0 11 C-0.07226502 9.14712498 -0.0838122 7.29166122 -0.0625 5.4375 C-0.05347656 4.42558594 -0.04445313 3.41367188 -0.03515625 2.37109375 C-0.02355469 1.58863281 -0.01195313 0.80617188 0 0 Z " fill="#E9552F" transform="translate(88,124)"/>
<path d="M0 0 C2.10409639 -0.02701408 4.20829178 -0.04640223 6.3125 -0.0625 C7.48425781 -0.07410156 8.65601562 -0.08570312 9.86328125 -0.09765625 C13 0 13 0 16 1 C16 1.66 16 2.32 16 3 C13.0384304 4.4807848 10.16493705 4.35314037 6.875 4.5625 C5.59367187 4.64628906 4.31234375 4.73007813 2.9921875 4.81640625 C2.00476563 4.87699219 1.01734375 4.93757813 0 5 C0 3.35 0 1.7 0 0 Z " fill="#CE267B" transform="translate(104,83)"/>
<path d="M0 0 C6.69179228 -0.35219959 11.52990402 0.2015355 16.9375 4.5625 C18 6 18 6 18 8 C17.34 8 16.68 8 16 8 C15.67 8.99 15.34 9.98 15 11 C14.9175 10.21625 14.835 9.4325 14.75 8.625 C14.26127622 5.93675158 14.26127622 5.93675158 12.3125 4.6875 C9.46515091 3.84099081 6.95436294 3.86571078 4 4 C4 3.34 4 2.68 4 2 C2.68 1.34 1.36 0.68 0 0 Z " fill="#E02463" transform="translate(108,96)"/>
<path d="M0 0 C10.49423077 1.23461538 10.49423077 1.23461538 13.8125 5.125 C14.204375 5.74375 14.59625 6.3625 15 7 C14.67 7.66 14.34 8.32 14 9 C13.401875 8.67 12.80375 8.34 12.1875 8 C9.94613529 6.79212012 9.94613529 6.79212012 7 7 C4.3125 5.625 4.3125 5.625 2 4 C2 3.34 2 2.68 2 2 C1.34 1.34 0.68 0.68 0 0 Z " fill="#B93A93" transform="translate(136,75)"/>
<path d="M0 0 C0.66 0 1.32 0 2 0 C3.86783046 5.48675196 4.2358396 10.22192976 4 16 C2.68 16 1.36 16 0 16 C0 10.72 0 5.44 0 0 Z " fill="#8B4A99" transform="translate(176,64)"/>
<path d="M0 0 C2.97 0.495 2.97 0.495 6 1 C6 3.31 6 5.62 6 8 C6.94875 7.95875 7.8975 7.9175 8.875 7.875 C12 8 12 8 14 10 C13.67 10.33 13.34 10.66 13 11 C8.01712068 10.60918594 4.34977982 9.44012039 0 7 C0.99 5.02 1.98 3.04 3 1 C2.01 0.67 1.02 0.34 0 0 Z " fill="#E9AF2F" transform="translate(58,168)"/>
<path d="M0 0 C0 2 0 2 -1.11328125 3.61328125 C-3.82270648 5.60468075 -5.87049289 5.29450023 -9.1875 5.1875 C-10.27417969 5.16042969 -11.36085937 5.13335937 -12.48046875 5.10546875 C-13.31191406 5.07066406 -14.14335937 5.03585938 -15 5 C-14.01 4.67 -13.02 4.34 -12 4 C-12 3.34 -12 2.68 -12 2 C-12.99 1.67 -13.98 1.34 -15 1 C-13.25215171 0.63536268 -11.50159498 0.2836922 -9.75 -0.0625 C-8.28820312 -0.35833984 -8.28820312 -0.35833984 -6.796875 -0.66015625 C-4.131881 -0.98397535 -2.51128277 -0.85503199 0 0 Z " fill="#ED6D31" transform="translate(143,162)"/>
<path d="M0 0 C-0.33 1.65 -0.66 3.3 -1 5 C-3.8125 5.625 -3.8125 5.625 -7 6 C-7.99 5.34 -8.98 4.68 -10 4 C-10 2.68 -10 1.36 -10 0 C-6.7169902 -1.6415049 -3.57454967 -0.51888624 0 0 Z " fill="#EE4C23" transform="translate(146,145)"/>
<path d="M0 0 C1.37562854 1.28965176 2.70766393 2.62689293 4 4 C4 4.66 4 5.32 4 6 C2.02 6.33 0.04 6.66 -2 7 C-2 7.928125 -2 8.85625 -2 9.8125 C-2 14.02902438 -2.26117629 17.84411662 -3 22 C-3.33 22 -3.66 22 -4 22 C-4.10806144 19.08234109 -4.18732877 16.16868875 -4.25 13.25 C-4.28351563 12.425 -4.31703125 11.6 -4.3515625 10.75 C-4.45112665 4.57702246 -4.45112665 4.57702246 -1.984375 1.421875 C-1.32953125 0.95265625 -0.6746875 0.4834375 0 0 Z " fill="#B82E86" transform="translate(76,82)"/>
<path d="M0 0 C0.33 0 0.66 0 1 0 C1 7.92 1 15.84 1 24 C0.01 24 -0.98 24 -2 24 C-2.28545428 15.86455314 -1.18396883 8.02350304 0 0 Z " fill="#E2228B" transform="translate(178,96)"/>
<path d="M0 0 C0.66 0 1.32 0 2 0 C3.29449495 3.88348484 3.13203312 6.90697336 3 11 C2.67 11.33 2.34 11.66 2 12 C1.63239269 14.32817964 1.29758419 16.6618385 1 19 C0.67 19 0.34 19 0 19 C-0.19476139 16.39619004 -0.38108614 13.79224467 -0.5625 11.1875 C-0.61857422 10.44951172 -0.67464844 9.71152344 -0.73242188 8.95117188 C-0.95769724 5.63211484 -1.06255812 3.18767436 0 0 Z " fill="#D92893" transform="translate(165,85)"/>
<path d="M0 0 C0.66 0 1.32 0 2 0 C3.28317892 3.84953676 3.06643637 6.94738135 3 11 C1.35 11 -0.3 11 -2 11 C-2 8.36 -2 5.72 -2 3 C-1.34 3 -0.68 3 0 3 C0 2.01 0 1.02 0 0 Z " fill="#E74529" transform="translate(59,117)"/>
<path d="M0 0 C0.33 0 0.66 0 1 0 C1.74926071 3.66305234 2.2380014 6.42355152 1 10 C-6.57142857 8.14285714 -6.57142857 8.14285714 -9 5 C-7 4 -5 3 -3 2 C-3 3.32 -3 4.64 -3 6 C-2.34 5.67 -1.68 5.34 -1 5 C-0.34444881 2.47266765 -0.34444881 2.47266765 0 0 Z " fill="#E01D7A" transform="translate(132,83)"/>
<path d="M0 0 C2.40179685 2.40179685 2.25598087 2.96950007 2.265625 6.24609375 C2.26820312 7.08333984 2.27078125 7.92058594 2.2734375 8.78320312 C2.26570313 9.65912109 2.25796875 10.53503906 2.25 11.4375 C2.25773437 12.30955078 2.26546875 13.18160156 2.2734375 14.08007812 C2.27085938 14.91861328 2.26828125 15.75714844 2.265625 16.62109375 C2.26336914 17.3886499 2.26111328 18.15620605 2.25878906 18.94702148 C2 21 2 21 0 24 C-1.33257403 7.1070615 -1.33257403 7.1070615 0 0 Z " fill="#953A94" transform="translate(46,80)"/>
<path d="M0 0 C0.66 0.66 1.32 1.32 2 2 C2.66 1.67 3.32 1.34 4 1 C8 5.5 8 5.5 8 10 C7.01 10 6.02 10 5 10 C4.67 8.68 4.34 7.36 4 6 C3.01 6 2.02 6 1 6 C0.67 6.99 0.34 7.98 0 9 C0 6.03 0 3.06 0 0 Z " fill="#D02C8B" transform="translate(145,80)"/>
<path d="M0 0 C2.12493141 -0.02693575 4.24995912 -0.04636628 6.375 -0.0625 C7.55835937 -0.07410156 8.74171875 -0.08570312 9.9609375 -0.09765625 C13 0 13 0 15 1 C15 1.66 15 2.32 15 3 C9.72 3 4.44 3 -1 3 C-0.67 2.01 -0.34 1.02 0 0 Z " fill="#C03187" transform="translate(105,80)"/>
<path d="M0 0 C1.98 0.99 1.98 0.99 4 2 C3.43393721 6.69023454 2.81462495 11.34500026 2 16 C1.34 16 0.68 16 0 16 C0 10.72 0 5.44 0 0 Z " fill="#EB1D75" transform="translate(164,112)"/>
<path d="M0 0 C0.91007812 0.00902344 1.82015625 0.01804687 2.7578125 0.02734375 C3.45648438 0.03894531 4.15515625 0.05054687 4.875 0.0625 C2.875 2.0625 2.875 2.0625 -0.25 2.1875 C-1.19875 2.14625 -2.1475 2.105 -3.125 2.0625 C-3.455 3.3825 -3.785 4.7025 -4.125 6.0625 C-6.435 5.7325 -8.745 5.4025 -11.125 5.0625 C-7.2521174 1.06052131 -5.57273276 -0.07144529 0 0 Z " fill="#8C448F" transform="translate(89.125,72.9375)"/>
<path d="M0 0 C0.66 0 1.32 0 2 0 C4 3 4 3 3.625 5.6875 C3.41875 6.450625 3.2125 7.21375 3 8 C1.35 8 -0.3 8 -2 8 C-2.6875 6.25 -2.6875 6.25 -3 4 C-1.6875 1.75 -1.6875 1.75 0 0 Z " fill="#4C4F9F" transform="translate(52,56)"/>
<path d="M0 0 C5.28 0 10.56 0 16 0 C16 0.33 16 0.66 16 1 C13.36 1.33 10.72 1.66 8 2 C8 2.66 8 3.32 8 4 C4.7 4 1.4 4 -2 4 C-1.34 2.68 -0.68 1.36 0 0 Z " fill="#EBC85E" transform="translate(72,176)"/>
<path d="M0 0 C0.99 0.33 1.98 0.66 3 1 C3.226875 1.639375 3.45375 2.27875 3.6875 2.9375 C5.3285805 5.51634079 6.22401228 5.54132286 9.125 6.25 C10.40375 6.4975 11.6825 6.745 13 7 C13 7.33 13 7.66 13 8 C8.71 8 4.42 8 0 8 C0.33 7.34 0.66 6.68 1 6 C-0.39092892 3.37612865 -0.39092892 3.37612865 -2 1 C-1.34 0.67 -0.68 0.34 0 0 Z M5 3 C5.99 3.495 5.99 3.495 7 4 C6.01 4.495 6.01 4.495 5 5 C5 4.34 5 3.68 5 3 Z " fill="#F6FDFA" transform="translate(99,126)"/>
<path d="M0 0 C4.62 0 9.24 0 14 0 C10 4 10 4 7.640625 4.171875 C6.85171875 4.03265625 6.0628125 3.8934375 5.25 3.75 C4.45078125 3.62109375 3.6515625 3.4921875 2.828125 3.359375 C1.92320313 3.18148437 1.92320313 3.18148437 1 3 C0.67 2.01 0.34 1.02 0 0 Z " fill="#D62879" transform="translate(88,88)"/>
<path d="M0 0 C2.64 0 5.28 0 8 0 C8 0.66 8 1.32 8 2 C9.32 2.33 10.64 2.66 12 3 C12 3.33 12 3.66 12 4 C6.39 4 0.78 4 -5 4 C-5 3.67 -5 3.34 -5 3 C-3.35 2.67 -1.7 2.34 0 2 C0 1.34 0 0.68 0 0 Z " fill="#E3BB62" transform="translate(117,176)"/>
<path d="M0 0 C2.5 2.3125 2.5 2.3125 5 5 C5 5.99 5 6.98 5 8 C3.02 8 1.04 8 -1 8 C-2.0625 6.125 -2.0625 6.125 -3 4 C-2.67 3.34 -2.34 2.68 -2 2 C-1.34 2 -0.68 2 0 2 C0 1.34 0 0.68 0 0 Z " fill="#EC3134" transform="translate(82,112)"/>
<path d="M0 0 C2.475 0.99 2.475 0.99 5 2 C4.01 3.485 4.01 3.485 3 5 C2.835 6.19625 2.67 7.3925 2.5 8.625 C2.335 9.73875 2.17 10.8525 2 12 C1.01 12.495 1.01 12.495 0 13 C-0.19551338 11.39679026 -0.38111983 9.79237014 -0.5625 8.1875 C-0.71912109 6.84751953 -0.71912109 6.84751953 -0.87890625 5.48046875 C-1 3 -1 3 0 0 Z " fill="#F02352" transform="translate(101,101)"/>
<path d="M0 0 C0 0.33 0 0.66 0 1 C-1.65 1.33 -3.3 1.66 -5 2 C-5.33 3.98 -5.66 5.96 -6 8 C-5.01 8.66 -4.02 9.32 -3 10 C-3.33 10.66 -3.66 11.32 -4 12 C-5.9375 11.4375 -5.9375 11.4375 -8 10 C-9.60714286 4.10714286 -9.60714286 4.10714286 -7.9375 1.0625 C-5.23787512 -0.41793945 -3.02429981 -0.20161999 0 0 Z " fill="#F3DEEE" transform="translate(142,80)"/>
<path d="M0 0 C1.9375 0.625 1.9375 0.625 4 2 C4.875 4.9375 4.875 4.9375 5 8 C4.01 9.485 4.01 9.485 3 11 C-0.875 5.25 -0.875 5.25 -2 3 C-1.34 3 -0.68 3 0 3 C0 2.01 0 1.02 0 0 Z " fill="#9B4796" transform="translate(156,68)"/>
<path d="M0 0 C1.65 0 3.3 0 5 0 C3.54054054 4.62162162 3.54054054 4.62162162 1.125 6.3125 C-1 7 -1 7 -5 7 C-4.67 6.01 -4.34 5.02 -4 4 C-3.01 4 -2.02 4 -1 4 C-0.67 2.68 -0.34 1.36 0 0 Z " fill="#EB524A" transform="translate(153,172)"/>
<path d="M0 0 C2.475 0.99 2.475 0.99 5 2 C5 1.34 5 0.68 5 0 C5.66 0 6.32 0 7 0 C7.33 1.98 7.66 3.96 8 6 C4.04179141 5.43454163 1.3340947 4.19097652 -2 2 C-1.34 1.34 -0.68 0.68 0 0 Z " fill="#EB932F" transform="translate(80,147)"/>
<path d="M0 0 C0.33 0 0.66 0 1 0 C1.33 7.92 1.66 15.84 2 24 C0.68 24 -0.64 24 -2 24 C-1.76228882 23.15743652 -1.76228882 23.15743652 -1.51977539 22.29785156 C-0.97811638 19.90325571 -0.79358526 17.68561447 -0.68359375 15.234375 C-0.64169922 14.34492188 -0.59980469 13.45546875 -0.55664062 12.5390625 C-0.51732422 11.61867187 -0.47800781 10.69828125 -0.4375 9.75 C-0.39431641 8.81414062 -0.35113281 7.87828125 -0.30664062 6.9140625 C-0.2008195 4.60951359 -0.09873443 2.30486161 0 0 Z " fill="#E67446" transform="translate(62,120)"/>
<path d="M0 0 C2.0625 0.4375 2.0625 0.4375 4 1 C4.125 6.75 4.125 6.75 3 9 C0.9375 9.625 0.9375 9.625 -1 10 C-1.02689216 8.52093108 -1.04634621 7.04172517 -1.0625 5.5625 C-1.07410156 4.73878906 -1.08570313 3.91507812 -1.09765625 3.06640625 C-1 1 -1 1 0 0 Z " fill="#EB195E" transform="translate(140,109)"/>
<path d="M0 0 C0.70125 0.268125 1.4025 0.53625 2.125 0.8125 C-0.68304268 3.77654505 -3.05815774 6.25749019 -6.875 7.8125 C-6.875 7.1525 -6.875 6.4925 -6.875 5.8125 C-7.535 5.4825 -8.195 5.1525 -8.875 4.8125 C-3.58269231 -0.23365385 -3.58269231 -0.23365385 0 0 Z " fill="#4259A7" transform="translate(60.875,50.1875)"/>
<path d="M0 0 C1.27310312 0.93441535 2.543388 1.87267111 3.8125 2.8125 C4.52019531 3.33457031 5.22789063 3.85664063 5.95703125 4.39453125 C7.78531393 5.83128877 9.39896688 7.31815763 11 9 C9.37181054 8.77169299 7.7473651 8.51656424 6.125 8.25 C5.22007813 8.11078125 4.31515625 7.9715625 3.3828125 7.828125 C1 7 1 7 -0.3203125 4.921875 C-0.65675781 3.97054687 -0.65675781 3.97054687 -1 3 C-0.34 3 0.32 3 1 3 C0.67 2.01 0.34 1.02 0 0 Z " fill="#E8A233" transform="translate(68,151)"/>
<path d="M0 0 C1.98 0 3.96 0 6 0 C6 1.65 6 3.3 6 5 C5.01 5.33 4.02 5.66 3 6 C2.67 6.66 2.34 7.32 2 8 C1.34 7.67 0.68 7.34 0 7 C0 4.69 0 2.38 0 0 Z " fill="#CD3567" transform="translate(56,104)"/>
<path d="M0 0 C2.10478604 0.11409682 4.20884577 0.24165361 6.3125 0.375 C7.48425781 0.44460937 8.65601562 0.51421875 9.86328125 0.5859375 C13 1 13 1 16 3 C15.67 3.66 15.34 4.32 15 5 C8.42097147 5.37239784 8.42097147 5.37239784 6.375 3.5625 C5.92125 3.046875 5.4675 2.53125 5 2 C2.39388923 1.27802838 2.39388923 1.27802838 0 1 C0 0.67 0 0.34 0 0 Z " fill="#EC5526" transform="translate(112,139)"/>
<path d="M0 0 C3 1 3 1 5 4 C7.05003955 5.19232613 7.05003955 5.19232613 9 6 C9 6.33 9 6.66 9 7 C5.625 7.125 5.625 7.125 2 7 C0 5 0 5 -0.125 2.375 C-0.08375 1.59125 -0.0425 0.8075 0 0 Z " fill="#EB9D1F" transform="translate(64,153)"/>
<path d="M0 0 C0.96697501 3.86790003 0.979595 5.08162002 0.0625 8.75 C-0.13214844 9.54921875 -0.32679688 10.3484375 -0.52734375 11.171875 C-0.76130859 12.07679688 -0.76130859 12.07679688 -1 13 C-3.475 12.01 -3.475 12.01 -6 11 C-4.02 7.37 -2.04 3.74 0 0 Z " fill="#E43750" transform="translate(137,120)"/>
<path d="M0 0 C0.99 0 1.98 0 3 0 C3.2919519 5.54708616 2.19088986 10.61972975 1 16 C0.67 16 0.34 16 0 16 C0 10.72 0 5.44 0 0 Z " fill="#D13A48" transform="translate(45,112)"/>
<path d="M0 0 C0.33 0 0.66 0 1 0 C1 2.64 1 5.28 1 8 C-0.32 8 -1.64 8 -3 8 C-3.33 8.99 -3.66 9.98 -4 11 C-4.33 9.02 -4.66 7.04 -5 5 C-4.01 4.34 -3.02 3.68 -2 3 C-1.34 3.33 -0.68 3.66 0 4 C0 2.68 0 1.36 0 0 Z " fill="#BE3079" transform="translate(61,96)"/>
<path d="M0 0 C0.33 0.66 0.66 1.32 1 2 C0.67 2.66 0.34 3.32 0 4 C0.66 4.33 1.32 4.66 2 5 C0.68 5 -0.64 5 -2 5 C-2 5.66 -2 6.32 -2 7 C-3.65 7.33 -5.3 7.66 -7 8 C-7 8.66 -7 9.32 -7 10 C-7.99 9.67 -8.98 9.34 -10 9 C-6.7 6.03 -3.4 3.06 0 0 Z " fill="#DE4B3A" transform="translate(157,150)"/>
<path d="M0 0 C2.83022097 3.99560608 1.76210446 7.42737323 1 12 C0.01 12 -0.98 12 -2 12 C-2 9.36 -2 6.72 -2 4 C-1.34 4 -0.68 4 0 4 C0 2.68 0 1.36 0 0 Z " fill="#EA7A1F" transform="translate(47,140)"/>
<path d="M0 0 C0.99 0 1.98 0 3 0 C3 2.64 3 5.28 3 8 C1.68 8 0.36 8 -1 8 C-0.67 5.36 -0.34 2.72 0 0 Z " fill="#ED6924" transform="translate(57,136)"/>
<path d="M0 0 C1.04449911 3.13349732 0.93423645 3.98968256 0 7 C-2.875 6.6875 -2.875 6.6875 -6 6 C-6.66 5.01 -7.32 4.02 -8 3 C-6.576875 3.0928125 -6.576875 3.0928125 -5.125 3.1875 C-3.578125 3.0946875 -3.578125 3.0946875 -2 3 C-1.34 2.01 -0.68 1.02 0 0 Z " fill="#E44746" transform="translate(110,122)"/>
<path d="M0 0 C0.33 0.66 0.66 1.32 1 2 C0.36328125 3.91015625 0.36328125 3.91015625 -0.6875 6.0625 C-1.18830078 7.13177734 -1.18830078 7.13177734 -1.69921875 8.22265625 C-3 10 -3 10 -5.14453125 10.74609375 C-6.06298828 10.87177734 -6.06298828 10.87177734 -7 11 C-6.40361667 9.72549553 -5.79752584 8.45553123 -5.1875 7.1875 C-4.85105469 6.47980469 -4.51460938 5.77210937 -4.16796875 5.04296875 C-2.99354529 2.98870965 -1.74371984 1.58383722 0 0 Z " fill="#F5E7F0" transform="translate(95,93)"/>
<path d="M0 0 C1.98 0 3.96 0 6 0 C6.93065133 2.60582371 7.14917407 3.64198224 6.0625 6.25 C5.5365625 7.11625 5.5365625 7.11625 5 8 C4.67 6.35 4.34 4.7 4 3 C2.68 3.33 1.36 3.66 0 4 C0 2.68 0 1.36 0 0 Z " fill="#833A94" transform="translate(57,80)"/>
<path d="M0 0 C0.99 0 1.98 0 3 0 C2.8125 1.875 2.8125 1.875 2 4 C-0.4375 5.3125 -0.4375 5.3125 -3 6 C-3.66 5.67 -4.32 5.34 -5 5 C-5 4.34 -5 3.68 -5 3 C-3.35 2.67 -1.7 2.34 0 2 C0 1.34 0 0.68 0 0 Z " fill="#F14232" transform="translate(155,155)"/>
<path d="M0 0 C0.6875 1.8125 0.6875 1.8125 1 4 C-0.88921611 6.48581067 -3.48170749 8.17640887 -6 10 C-6 9.34 -6 8.68 -6 8 C-6.66 7.67 -7.32 7.34 -8 7 C-7.05125 6.401875 -6.1025 5.80375 -5.125 5.1875 C-1.86035803 3.18437474 -1.86035803 3.18437474 0 0 Z " fill="#F5EEE5" transform="translate(150,144)"/>
<path d="M0 0 C0.97582031 0.10183594 1.95164062 0.20367187 2.95703125 0.30859375 C3.69308594 0.39238281 4.42914063 0.47617188 5.1875 0.5625 C1.44784036 3.05560643 -0.10320641 2.6228261 -4.5 2.1875 C-5.67949219 2.07664063 -6.85898438 1.96578125 -8.07421875 1.8515625 C-8.97785156 1.75617188 -9.88148437 1.66078125 -10.8125 1.5625 C-10.8125 1.2325 -10.8125 0.9025 -10.8125 0.5625 C-7.01982808 -0.3735342 -3.87575435 -0.42026252 0 0 Z " fill="#F0DFC7" transform="translate(114.8125,136.4375)"/>
<path d="M0 0 C0.33 1.32 0.66 2.64 1 4 C2.65 3.34 4.3 2.68 6 2 C6 3.98 6 5.96 6 8 C4.35 8 2.7 8 1 8 C0.67 5.36 0.34 2.72 0 0 Z " fill="#90379A" transform="translate(56,80)"/>
<path d="M0 0 C1.6875 1.75 1.6875 1.75 3 4 C2.6875 6.25 2.6875 6.25 2 8 C-0.43929746 6.07423885 -2.80090595 4.19909405 -5 2 C-2 0 -2 0 0 0 Z " fill="#F8EEF5" transform="translate(146,71)"/>
<path d="M0 0 C1.32 1.32 2.64 2.64 4 4 C3.360625 4.94875 2.72125 5.8975 2.0625 6.875 C0.07379437 9.75287827 0.07379437 9.75287827 -1 12 C-1.66 11.01 -2.32 10.02 -3 9 C-2.34 8.01 -1.68 7.02 -1 6 C-0.60986284 4.0103005 -0.26797351 2.00980131 0 0 Z " fill="#FAF5E9" transform="translate(74,144)"/>
<path d="M0 0 C2.64 0 5.28 0 8 0 C8 1.32 8 2.64 8 4 C6.68 4.33 5.36 4.66 4 5 C3.67 4.34 3.34 3.68 3 3 C2.01 2.67 1.02 2.34 0 2 C0 1.34 0 0.68 0 0 Z " fill="#EE2F34" transform="translate(144,136)"/>
<path d="M0 0 C1.65 0 3.3 0 5 0 C5 1.98 5 3.96 5 6 C3.35 5.67 1.7 5.34 0 5 C0 3.35 0 1.7 0 0 Z " fill="#EF681D" transform="translate(74,136)"/>
<path d="M0 0 C5.19822672 1.36144033 8.09543873 3.46730171 12 7 C11.34 7.66 10.68 8.32 10 9 C8.2925002 7.71937515 6.62626404 6.38232443 5 5 C5 4.34 5 3.68 5 3 C3.35 2.67 1.7 2.34 0 2 C0 1.34 0 0.68 0 0 Z " fill="#F3DFEE" transform="translate(120,88)"/>
<path d="M0 0 C2 3 2 3 2 7 C0.35 7 -1.3 7 -3 7 C-3.1875 4.625 -3.1875 4.625 -3 2 C-2.01 1.34 -1.02 0.68 0 0 Z " fill="#814EA3" transform="translate(172,57)"/>
<path d="M0 0 C-0.66 1.65 -1.32 3.3 -2 5 C-3.65 4.67 -5.3 4.34 -7 4 C-7.33 3.01 -7.66 2.02 -8 1 C-3.375 -1.125 -3.375 -1.125 0 0 Z " fill="#F4E8EA" transform="translate(166,177)"/>
<path d="M0 0 C1.32 0 2.64 0 4 0 C2.84826645 2.46800047 1.95216435 4.04783565 0 6 C-0.99 6 -1.98 6 -3 6 C-2.67 4.68 -2.34 3.36 -2 2 C-1.34 2 -0.68 2 0 2 C0 1.34 0 0.68 0 0 Z " fill="#E22B44" transform="translate(123,120)"/>
<path d="M0 0 C0.33 1.65 0.66 3.3 1 5 C-0.75 5.6875 -0.75 5.6875 -3 6 C-5.25 4.5625 -5.25 4.5625 -7 3 C-2.25 0 -2.25 0 0 0 Z " fill="#F3ECF2" transform="translate(103,89)"/>
<path d="M0 0 C2.64 0 5.28 0 8 0 C8 1.32 8 2.64 8 4 C5.36 4 2.72 4 0 4 C0.99 3.67 1.98 3.34 3 3 C3 2.34 3 1.68 3 1 C2.01 0.67 1.02 0.34 0 0 Z " fill="#F1792C" transform="translate(128,163)"/>
<path d="M0 0 C0.99 0 1.98 0 3 0 C3 0.99 3 1.98 3 3 C2.34 3 1.68 3 1 3 C0.34 4.65 -0.32 6.3 -1 8 C-1.66 8 -2.32 8 -3 8 C-3 6.35 -3 4.7 -3 3 C-2.34 3 -1.68 3 -1 3 C-0.67 2.01 -0.34 1.02 0 0 Z " fill="#D83953" transform="translate(59,109)"/>
<path d="M0 0 C0.33 0.66 0.66 1.32 1 2 C2.64363134 2.72159424 4.31050386 3.39351421 6 4 C5.34 4.66 4.68 5.32 4 6 C4 5.34 4 4.68 4 4 C2.02 4.66 0.04 5.32 -2 6 C-2.33 4.68 -2.66 3.36 -3 2 C-2.34 1.67 -1.68 1.34 -1 1 C-0.67 0.67 -0.34 0.34 0 0 Z " fill="#7451A4" transform="translate(163,50)"/>
<path d="M0 0 C1.485 0.99 1.485 0.99 3 2 C3 2.99 3 3.98 3 5 C2.34 5 1.68 5 1 5 C1.33 6.65 1.66 8.3 2 10 C1.01 10.495 1.01 10.495 0 11 C0 7.37 0 3.74 0 0 Z " fill="#EC472C" transform="translate(88,124)"/>
<path d="M0 0 C1.9375 0.3125 1.9375 0.3125 4 1 C4.33 1.99 4.66 2.98 5 4 C2.69 4 0.38 4 -2 4 C-1.34 2.68 -0.68 1.36 0 0 Z " fill="#EABE4A" transform="translate(72,176)"/>
<path d="M0 0 C0.33 0.66 0.66 1.32 1 2 C1.66 2 2.32 2 3 2 C3 2.99 3 3.98 3 5 C2.01 5.33 1.02 5.66 0 6 C-0.99 5.01 -1.98 4.02 -3 3 C-2.01 2.01 -1.02 1.02 0 0 Z " fill="#F2E6EC" transform="translate(172,169)"/>
<path d="M0 0 C2.64 0.33 5.28 0.66 8 1 C4.93882432 3.62386487 4.26826873 4 0 4 C0 2.68 0 1.36 0 0 Z " fill="#E46031" transform="translate(136,149)"/>
<path d="M0 0 C1.32 0.33 2.64 0.66 4 1 C4.33 2.32 4.66 3.64 5 5 C3.35 5 1.7 5 0 5 C0 3.35 0 1.7 0 0 Z " fill="#EE3734" transform="translate(131,131)"/>
<path d="M0 0 C0.66 0 1.32 0 2 0 C2 2.31 2 4.62 2 7 C1.01 7.495 1.01 7.495 0 8 C-1.125 2.25 -1.125 2.25 0 0 Z " fill="#E73544" transform="translate(98,114)"/>
<path d="M0 0 C2.64 0 5.28 0 8 0 C7.67 1.32 7.34 2.64 7 4 C6.01 4 5.02 4 4 4 C4 3.34 4 2.68 4 2 C2.68 1.34 1.36 0.68 0 0 Z " fill="#E63170" transform="translate(108,96)"/>
<path d="M0 0 C1.65 0.33 3.3 0.66 5 1 C2.09907498 2.93395001 1.10325263 3.30131941 -2.1875 3.625 C-3.445625 3.74875 -4.70375 3.8725 -6 4 C-6 3.01 -6 2.02 -6 1 C-4.02 1 -2.04 1 0 1 C0 0.67 0 0.34 0 0 Z " fill="#6550A4" transform="translate(86,59)"/>
<path d="M0 0 C1.65 0 3.3 0 5 0 C3.02 2.31 1.04 4.62 -1 7 C-2 4 -2 4 -1.0625 1.8125 C-0.5365625 0.9153125 -0.5365625 0.9153125 0 0 Z " fill="#F8EDF1" transform="translate(100,97)"/>
<path d="M0 0 C0.66 0.99 1.32 1.98 2 3 C0 5 -2 7 -4 9 C-3.46930939 5.17902761 -2.50298434 2.93828597 0 0 Z " fill="#8F3B85" transform="translate(77,78)"/>
<path d="M0 0 C1.32 0.99 2.64 1.98 4 3 C3.67 3.99 3.34 4.98 3 6 C2.01 6.33 1.02 6.66 0 7 C0 4.69 0 2.38 0 0 Z " fill="#F7F2F5" transform="translate(150,68)"/>
<path d="M0 0 C0.33 0.99 0.66 1.98 1 3 C-0.98 3.99 -0.98 3.99 -3 5 C-3 4.34 -3 3.68 -3 3 C-3.66 2.67 -4.32 2.34 -5 2 C-2 0 -2 0 0 0 Z " fill="#505FA9" transform="translate(57,53)"/>
</svg>
