<?xml version="1.0" encoding="UTF-8"?>
<svg version="1.1" xmlns="http://www.w3.org/2000/svg" width="487" height="103">
<path d="M0 0 C160.71 0 321.42 0 487 0 C487 33.99 487 67.98 487 103 C326.29 103 165.58 103 0 103 C0 69.01 0 35.02 0 0 Z " fill="#FDFDFD" transform="translate(0,0)"/>
<path d="M0 0 C16.17 0 32.34 0 49 0 C49 16.17 49 32.34 49 49 C32.83 49 16.66 49 0 49 C0 32.83 0 16.66 0 0 Z " fill="#FFB901" transform="translate(55,54)"/>
<path d="M0 0 C16.17 0 32.34 0 49 0 C49 16.17 49 32.34 49 49 C32.83 49 16.66 49 0 49 C0 32.83 0 16.66 0 0 Z " fill="#00A3EE" transform="translate(0,54)"/>
<path d="M0 0 C16.17 0 32.34 0 49 0 C49 16.17 49 32.34 49 49 C32.83 49 16.66 49 0 49 C0 32.83 0 16.66 0 0 Z " fill="#7FBA01" transform="translate(55,0)"/>
<path d="M0 0 C16.17 0 32.34 0 49 0 C49 16.17 49 32.34 49 49 C32.83 49 16.66 49 0 49 C0 32.83 0 16.66 0 0 Z " fill="#F14F21" transform="translate(0,0)"/>
<path d="M0 0 C5.28 0 10.56 0 16 0 C17.06927734 2.62775391 17.06927734 2.62775391 18.16015625 5.30859375 C19.12758651 7.68490302 20.09503544 10.06120469 21.0625 12.4375 C21.52849609 13.58283203 21.99449219 14.72816406 22.47460938 15.90820312 C26.29177522 25.2823315 30.14108154 34.6429954 34 44 C34.20853607 43.49301071 34.41707214 42.98602142 34.63192749 42.46366882 C36.80182334 37.1900666 38.97624836 31.91834876 41.15332031 26.64770508 C41.9653584 24.6800868 42.77623804 22.71199001 43.5859375 20.7434082 C44.74956345 17.91491302 45.91733621 15.08816136 47.0859375 12.26171875 C47.44746918 11.38037766 47.80900085 10.49903656 48.18148804 9.59098816 C48.52168976 8.77036392 48.86189148 7.94973969 49.21240234 7.10424805 C49.50996429 6.38254929 49.80752625 5.66085052 50.11410522 4.9172821 C51 3 51 3 53 0 C57.62 0 62.24 0 67 0 C67 20.13 67 40.26 67 61 C63.7 61 60.4 61 57 61 C56.67 45.82 56.34 30.64 56 15 C50.06 30.18 44.12 45.36 38 61 C35.36 61 32.72 61 30 61 C25.34034558 51.19730248 21.17207336 41.25398108 17.125 31.1875 C15.10375 26.175625 13.0825 21.16375 11 16 C10.67 30.85 10.34 45.7 10 61 C6.7 61 3.4 61 0 61 C0 40.87 0 20.74 0 0 Z " fill="#737373" transform="translate(135,21)"/>
<path d="M0 0 C1 1 1 1 1.09765625 2.84765625 C1.06510417 4.8984375 1.03255208 6.94921875 1 9 C0.37351562 9.03738281 -0.25296875 9.07476562 -0.8984375 9.11328125 C-1.71570313 9.17902344 -2.53296875 9.24476562 -3.375 9.3125 C-4.59316406 9.39951172 -4.59316406 9.39951172 -5.8359375 9.48828125 C-8.37921338 9.82990528 -8.37921338 9.82990528 -10 13 C-10.45394552 15.27912938 -10.45394552 15.27912938 -10.625 17.6875 C-10.74875 19.110625 -10.8725 20.53375 -11 22 C-5.72 22 -0.44 22 5 22 C5 18.7 5 15.4 5 12 C12.75 9 12.75 9 15 9 C15 13.29 15 17.58 15 22 C18.63 22 22.26 22 26 22 C26 36.52 26 51.04 26 66 C21.3634305 67.54552317 16.83699499 67.62791233 12 67 C8.32564826 65.1592706 6.31666174 62.94998521 5 59 C4.91641042 56.78910055 4.89268236 54.57573922 4.90234375 52.36328125 C4.90556641 51.06455078 4.90878906 49.76582031 4.91210938 48.42773438 C4.92046469 47.05598892 4.92892963 45.68424413 4.9375 44.3125 C4.94251665 42.92903805 4.94707927 41.54557437 4.95117188 40.16210938 C4.96297462 36.77472104 4.98091033 33.3873551 5 30 C-0.28 30 -5.56 30 -11 30 C-11 42.21 -11 54.42 -11 67 C-14.63 67 -18.26 67 -22 67 C-22 55.12 -22 43.24 -22 31 C-24.31 31 -26.62 31 -29 31 C-29 28.03 -29 25.06 -29 22 C-26.69 22 -24.38 22 -22 22 C-22.05800781 21.3709375 -22.11601562 20.741875 -22.17578125 20.09375 C-22.48008125 14.32074429 -21.97042312 10.43020677 -18.5390625 5.6953125 C-13.30227579 -0.07312768 -7.58613305 -0.88650214 0 0 Z " fill="#747474" transform="translate(461,16)"/>
<path d="M0 0 C5.03517699 4.1023442 8.4186169 9.81547718 9.31640625 16.27734375 C9.67487517 23.5970478 8.16862157 31.23820046 3.3515625 36.95703125 C-3.41058534 43.02524689 -10.33294541 43.62016225 -19.1015625 43.37109375 C-24.24409797 42.88157384 -27.43839898 41.7504738 -31 38 C-36.86012917 30.52685548 -37.98345785 23.39491501 -37 14 C-34.95418346 6.85461149 -31.38325443 2.85202869 -25.0859375 -0.94140625 C-17.38907432 -4.84749224 -7.60523556 -3.71723949 0 0 Z " fill="#747474" transform="translate(422,40)"/>
<path d="M0 0 C4.12904985 2.75834068 7.12556682 6.63899569 8.90625 11.2734375 C10.38559405 28.13107903 10.38559405 28.13107903 6.17578125 34.765625 C1.76164188 40.00826438 -2.90767763 42.95449453 -9.80078125 43.64453125 C-23.07857667 44.03836416 -23.07857667 44.03836416 -28.6171875 39.6953125 C-34.29618735 34.22664597 -36.36620598 28.90671658 -36.53125 21.0234375 C-36.40702243 13.25921434 -34.15061272 7.41074397 -28.71875 1.8359375 C-19.49416349 -3.6548878 -9.91506012 -5.06530245 0 0 Z " fill="#747474" transform="translate(336.09375,39.7265625)"/>
<path d="M0 0 C0 3.3 0 6.6 0 10 C-1.010625 9.67 -2.02125 9.34 -3.0625 9 C-6.7761357 7.94327439 -10.12827836 7.69633556 -14 8 C-16.27976241 9.81219963 -16.27976241 9.81219963 -16.01953125 12.40625 C-14.5330801 16.18787286 -12.30280538 16.7948949 -8.6875 18.5 C-3.97118062 20.73932745 -0.79571583 22.50519294 2 27 C2.98798586 31.64934524 2.6681352 35.74390583 0.4375 39.9375 C-5.99114378 45.37712166 -11.58373564 45.32746348 -19.79296875 45.30078125 C-23 45 -23 45 -27 43 C-27 40.03 -27 37.06 -27 34 C-22.25 34.875 -22.25 34.875 -20 36 C-18.50243129 36.09499503 -17.00057068 36.12987198 -15.5 36.125 C-14.7059375 36.12757812 -13.911875 36.13015625 -13.09375 36.1328125 C-10.94081466 36.13277996 -10.94081466 36.13277996 -9 35 C-9 33.02 -9 31.04 -9 29 C-9.66 28.7525 -10.32 28.505 -11 28.25 C-23.30252101 23.12394958 -23.30252101 23.12394958 -27 17 C-27.78129509 12.7479517 -27.46166223 9.22204709 -25.9375 5.1875 C-19.33529493 -2.2666025 -9.25846277 -3.08615426 0 0 Z " fill="#737373" transform="translate(378,38)"/>
<path d="M0 0 C0 3.3 0 6.6 0 10 C-0.804375 9.67 -1.60875 9.34 -2.4375 9 C-7.77614906 7.50143184 -12.64895137 7.08002445 -17.875 9.125 C-21.16085554 12.0242843 -22.72069662 14.83061625 -23.28515625 19.21484375 C-23.47050923 24.05819781 -22.91973995 26.98535758 -20 31 C-20 31.66 -20 32.32 -20 33 C-12.81221969 35.80498744 -7.14874771 35.33428497 0 33 C0 35.97 0 38.94 0 42 C-6.34769362 45.17384681 -13.05422596 44.67528359 -20 44 C-26.04693119 41.87302711 -30.26925265 37.53047376 -33.078125 31.80078125 C-35.25982063 25.1724941 -35.32496736 15.80347054 -32.375 9.375 C-29.25692203 4.33137212 -24.64839857 0.66990658 -19.125 -1.5 C-12.65791368 -3.02166737 -6.03356696 -2.77367272 0 0 Z " fill="#737373" transform="translate(265,39)"/>
<path d="M0 0 C1 1 1 1 1.09765625 3.28515625 C1.08605469 4.20167969 1.07445312 5.11820313 1.0625 6.0625 C1.05347656 6.98160156 1.04445313 7.90070312 1.03515625 8.84765625 C1.02355469 9.55792969 1.01195312 10.26820312 1 11 C0.39671875 10.95359375 -0.2065625 10.9071875 -0.828125 10.859375 C-6.02300592 10.53165845 -6.02300592 10.53165845 -10.5 12.875 C-13.07452508 16.52224386 -13.17582373 18.86183831 -13.31640625 23.3203125 C-13.35830078 24.57714844 -13.40019531 25.83398438 -13.44335938 27.12890625 C-13.48267578 28.44761719 -13.52199219 29.76632813 -13.5625 31.125 C-13.60569512 32.46485751 -13.64930973 33.80470156 -13.69335938 35.14453125 C-13.79970981 38.42957815 -13.90173808 41.71470281 -14 45 C-17.63 45 -21.26 45 -25 45 C-25 30.48 -25 15.96 -25 1 C-21.37 1 -17.74 1 -14 1 C-13.67 2.32 -13.34 3.64 -13 5 C-12.21625 4.360625 -11.4325 3.72125 -10.625 3.0625 C-6.80081417 0.05778257 -4.83980423 -0.20594912 0 0 Z " fill="#767676" transform="translate(298,37)"/>
<path d="M0 0 C3.64706399 2.12745399 5.43670531 4.13254486 7 8 C7.88912078 15.33007715 7.60979208 21.10971012 3 27 C0.02740314 29.44177599 -3.257338 29.36559062 -7.0390625 29.24609375 C-10.03580677 28.87000831 -11.71401456 27.95941609 -14 26 C-17.96867217 20.66282018 -17.80343634 14.37509268 -17 8 C-13.89873563 0.06441176 -7.68900561 -1.00718604 0 0 Z " fill="#FCFCFC" transform="translate(328,46)"/>
<path d="M0 0 C3.64971187 2.12899859 5.42301833 4.13673922 7 8 C7.77342191 14.55901954 7.43868473 20.30838389 4 26 C0.7058507 28.91767509 -2.52253608 29.64284981 -6.93359375 29.4921875 C-10.77873555 28.57633142 -13.50343318 25.97417091 -16 23 C-17.70569046 17.88292863 -18.04733695 11.92943257 -16.2109375 6.79296875 C-12.27923139 -0.33512439 -7.53118853 -0.98651351 0 0 Z " fill="#FCFCFC" transform="translate(413,46)"/>
<path d="M0 0 C3.3 0 6.6 0 10 0 C10 14.52 10 29.04 10 44 C6.7 44 3.4 44 0 44 C0 29.48 0 14.96 0 0 Z " fill="#707070" transform="translate(213,38)"/>
<path d="M0 0 C3.63 0 7.26 0 11 0 C11 9.24 11 18.48 11 28 C4 29 4 29 1 27 C-0.0394775 23.8815675 -0.11494838 21.72524414 -0.09765625 18.45703125 C-0.09443359 17.38388672 -0.09121094 16.31074219 -0.08789062 15.20507812 C-0.07951172 14.08552734 -0.07113281 12.96597656 -0.0625 11.8125 C-0.05798828 10.68134766 -0.05347656 9.55019531 -0.04882812 8.38476562 C-0.03703511 5.58982124 -0.01909957 2.79490401 0 0 Z " fill="#F8F8F8" transform="translate(476,46)"/>
<path d="M0 0 C2 2 2 2 2.3125 4.9375 C2 8 2 8 0.875 9.875 C-1.88090884 11.52854531 -3.85075452 11.39365568 -7 11 C-8.875 9.875 -8.875 9.875 -10 8 C-10.4375 5 -10.4375 5 -10 2 C-6.94783427 -1.63912068 -4.35383535 -1.23043173 0 0 Z " fill="#747474" transform="translate(222,20)"/>
</svg>
