<?xml version="1.0" encoding="UTF-8"?>
<svg version="1.1" xmlns="http://www.w3.org/2000/svg" width="225" height="225">
<path d="M0 0 C74.25 0 148.5 0 225 0 C225 74.25 225 148.5 225 225 C150.75 225 76.5 225 0 225 C0 150.75 0 76.5 0 0 Z " fill="#FEFEFE" transform="translate(0,0)"/>
<path d="M0 0 C1.98 0 3.96 0 6 0 C7.32 5.94 8.64 11.88 10 18 C11.32 12.06 12.64 6.12 14 0 C16.31 0 18.62 0 21 0 C21.41572266 1.71509766 21.41572266 1.71509766 21.83984375 3.46484375 C22.20554378 4.95577465 22.57143929 6.44665761 22.9375 7.9375 C23.11990234 8.69224609 23.30230469 9.44699219 23.49023438 10.22460938 C24.13839179 13.91279821 24.13839179 13.91279821 26 17 C26.99 11.39 27.98 5.78 29 0 C30.98 0 32.96 0 35 0 C34.35521919 6.34405026 33.03753669 12.3329118 31.4375 18.5 C31.20353516 19.4178125 30.96957031 20.335625 30.72851562 21.28125 C30.15666285 23.52197923 29.58041707 25.76147688 29 28 C26.125 28.1875 26.125 28.1875 23 28 C20.79334596 24.69001895 20.21737905 22.17978564 19.375 18.3125 C19.11460938 17.13300781 18.85421875 15.95351562 18.5859375 14.73828125 C18.39257812 13.83464844 18.19921875 12.93101563 18 12 C15.79334596 15.30998105 15.21737905 17.82021436 14.375 21.6875 C14.11460938 22.86699219 13.85421875 24.04648438 13.5859375 25.26171875 C13.39257812 26.16535156 13.19921875 27.06898438 13 28 C11.02 28 9.04 28 7 28 C4.90364336 22.86392623 3.26990795 17.66306434 1.8125 12.3125 C1.29623047 10.41951172 1.29623047 10.41951172 0.76953125 8.48828125 C0.10965805 5.49707941 -0.16851026 3.03899532 0 0 Z " fill="#0F83C5" transform="translate(12,101)"/>
<path d="M0 0 C1.134375 0.020625 2.26875 0.04125 3.4375 0.0625 C3.4375 0.7225 3.4375 1.3825 3.4375 2.0625 C6.72825996 1.68345792 6.72825996 1.68345792 9.4375 0.0625 C13.09870928 -0.34430103 14.7993744 -0.4376525 17.75 1.875 C20.87733265 5.92894973 20.55928865 9.86552768 20.5 14.75 C20.49548828 15.45189453 20.49097656 16.15378906 20.48632812 16.87695312 C20.47456927 18.60550538 20.45663454 20.33401365 20.4375 22.0625 C18.4575 22.0625 16.4775 22.0625 14.4375 22.0625 C14.1075 17.1125 13.7775 12.1625 13.4375 7.0625 C10.9625 6.5675 10.9625 6.5675 8.4375 6.0625 C8.1075 11.3425 7.7775 16.6225 7.4375 22.0625 C5.4575 22.0625 3.4775 22.0625 1.4375 22.0625 C1.1075 17.1125 0.7775 12.1625 0.4375 7.0625 C-1.2125 6.7325 -2.8625 6.4025 -4.5625 6.0625 C-4.8925 11.3425 -5.2225 16.6225 -5.5625 22.0625 C-7.5425 22.0625 -9.5225 22.0625 -11.5625 22.0625 C-11.5625 15.1325 -11.5625 8.2025 -11.5625 1.0625 C-9.22916667 1.0625 -6.89583333 1.0625 -4.5625 1.0625 C-3.5625 0.0625 -3.5625 0.0625 0 0 Z " fill="#1485C7" transform="translate(90.5625,106.9375)"/>
<path d="M0 0 C2.36293002 1.15632746 4.14983755 2.14983755 6 4 C6.08631874 5.34267413 6.10706473 6.68974322 6.09765625 8.03515625 C6.09443359 8.84404297 6.09121094 9.65292969 6.08789062 10.48632812 C6.07951172 11.33646484 6.07113281 12.18660156 6.0625 13.0625 C6.05798828 13.91650391 6.05347656 14.77050781 6.04882812 15.65039062 C6.03700373 17.76695663 6.01906769 19.88348685 6 22 C5.030625 21.814375 4.06125 21.62875 3.0625 21.4375 C2.051875 21.293125 1.04125 21.14875 0 21 C-0.33 21.33 -0.66 21.66 -1 22 C-8.17684887 22.46302251 -8.17684887 22.46302251 -11 20.875 C-12.55287329 17.96336258 -12.58491902 16.24955012 -12 13 C-8.93857761 9.64701358 -7.19472616 8.11062279 -2.625 7.6875 C-1.325625 7.8421875 -1.325625 7.8421875 0 8 C-0.33 7.01 -0.66 6.02 -1 5 C-3.97 5 -6.94 5 -10 5 C-10 3.68 -10 2.36 -10 1 C-6.81345065 -0.59327468 -3.46828976 -0.39200976 0 0 Z " fill="#0E82C5" transform="translate(125,107)"/>
<path d="M0 0 C2.125 1.625 2.125 1.625 3.125 3.625 C3.19694869 6.50870333 3.21791708 9.36739664 3.1875 12.25 C3.18298828 13.05179688 3.17847656 13.85359375 3.17382812 14.6796875 C3.16203168 16.66149006 3.14409605 18.64325433 3.125 20.625 C2.17625 20.439375 1.2275 20.25375 0.25 20.0625 C-2.77368793 19.33813368 -2.77368793 19.33813368 -4.875 20.625 C-11.05535883 21.07448064 -11.05535883 21.07448064 -13.8125 19.5625 C-15.50835287 16.47006242 -15.30560657 14.06985259 -14.875 10.625 C-12.56231879 7.73414849 -10.13958498 7.40486502 -6.625 6.9375 C-5.3875 6.834375 -4.15 6.73125 -2.875 6.625 C-2.875 5.635 -2.875 4.645 -2.875 3.625 C-6.175 3.625 -9.475 3.625 -12.875 3.625 C-12.875 2.305 -12.875 0.985 -12.875 -0.375 C-8.2614754 -1.91284153 -4.43778431 -2.12241859 0 0 Z " fill="#0E82C5" transform="translate(61.875,108.375)"/>
<path d="M0 0 C1.98 0 3.96 0 6 0 C6 2.31 6 4.62 6 7 C7.65 7 9.3 7 11 7 C11 8.98 11 10.96 11 13 C9.35 13 7.7 13 6 13 C6.33 16.63 6.66 20.26 7 24 C7.99 24.33 8.98 24.66 10 25 C10 26.32 10 27.64 10 29 C3.54937853 29.36512952 3.54937853 29.36512952 1.2878418 27.86206055 C-0.55156922 25.20249888 -0.33996225 23.2307535 -0.29296875 20.01953125 C-0.28330078 18.85615234 -0.27363281 17.69277344 -0.26367188 16.49414062 C-0.2259668 14.67172852 -0.2259668 14.67172852 -0.1875 12.8125 C-0.17396484 11.58595703 -0.16042969 10.35941406 -0.14648438 9.09570312 C-0.11108741 6.06336336 -0.0617076 3.03190004 0 0 Z " fill="#1786C7" transform="translate(150,100)"/>
<path d="M0 0 C1.98 0 3.96 0 6 0 C6 9.57 6 19.14 6 29 C4.02 29 2.04 29 0 29 C0 19.43 0 9.86 0 0 Z " fill="#1787C7" transform="translate(69,100)"/>
<path d="M0 0 C1.32 0 2.64 0 4 0 C4 1.98 4 3.96 4 6 C2.02 6.66 0.04 7.32 -2 8 C-2.33 12.62 -2.66 17.24 -3 22 C-4.98 22 -6.96 22 -9 22 C-9 15.07 -9 8.14 -9 1 C-7.35 1 -5.7 1 -4 1 C-4 1.99 -4 2.98 -4 4 C-3.34 4 -2.68 4 -2 4 C-1.34 2.68 -0.68 1.36 0 0 Z " fill="#1084C6" transform="translate(144,107)"/>
<path d="M0 0 C-0.51805107 3.96001753 -2.22280479 5.41052745 -5.3125 7.8125 C-6.09238281 8.43769531 -6.87226563 9.06289062 -7.67578125 9.70703125 C-10 11 -10 11 -12.29296875 10.69921875 C-12.85628906 10.46847656 -13.41960937 10.23773438 -14 10 C-14.33 8.35 -14.66 6.7 -15 5 C-13.06891037 3.96709159 -11.129882 2.94901328 -9.1875 1.9375 C-8.10855469 1.36902344 -7.02960938 0.80054687 -5.91796875 0.21484375 C-3 -1 -3 -1 0 0 Z " fill="#FDBE3D" transform="translate(185,116)"/>
<path d="M0 0 C3.69800158 0.44997807 5.90554138 2.26183494 8.75 4.5625 C9.94882813 5.52349609 9.94882813 5.52349609 11.171875 6.50390625 C12.07679688 7.24447266 12.07679688 7.24447266 13 8 C12.67 9.32 12.34 10.64 12 12 C7.0276578 10.50829734 2.58154261 8.39542583 -2 6 C-1.125 1.125 -1.125 1.125 0 0 Z " fill="#FDBF41" transform="translate(172,98)"/>
<path d="M0 0 C4.9723422 1.49170266 9.41845739 3.60457417 14 6 C13.67 7.65 13.34 9.3 13 11 C11.328125 11.71484375 11.328125 11.71484375 9 12 C6.421875 10.56640625 6.421875 10.56640625 3.75 8.5625 C2.85796875 7.90378906 1.9659375 7.24507813 1.046875 6.56640625 C0.37140625 6.04949219 -0.3040625 5.53257813 -1 5 C-0.67 3.35 -0.34 1.7 0 0 Z " fill="#FDBE3F" transform="translate(200,115)"/>
<path d="M0 0 C0.55171875 0.23074219 1.1034375 0.46148437 1.671875 0.69921875 C2.001875 2.34921875 2.331875 3.99921875 2.671875 5.69921875 C0.74078537 6.73212716 -1.198243 7.75020547 -3.140625 8.76171875 C-4.21957031 9.33019531 -5.29851562 9.89867188 -6.41015625 10.484375 C-9.328125 11.69921875 -9.328125 11.69921875 -12.328125 10.69921875 C-12.328125 9.37921875 -12.328125 8.05921875 -12.328125 6.69921875 C-10.28125 4.7421875 -10.28125 4.7421875 -7.578125 2.88671875 C-6.69640625 2.26152344 -5.8146875 1.63632813 -4.90625 0.9921875 C-2.328125 -0.30078125 -2.328125 -0.30078125 0 0 Z " fill="#FDBE3E" transform="translate(211.328125,98.30078125)"/>
<path d="M0 0 C1.32 0 2.64 0 4 0 C5.32286246 4.96073422 5.08893197 9.91111512 5 15 C3.34385343 15.38218767 1.67542976 15.71395102 0 16 C-1 15 -1 15 -1.1328125 11.875 C-1.13023437 10.59625 -1.12765625 9.3175 -1.125 8 C-1.12757813 6.72125 -1.13015625 5.4425 -1.1328125 4.125 C-1 1 -1 1 0 0 Z " fill="#FDBD3B" transform="translate(190,121)"/>
<path d="M0 0 C1.67542976 0.28604898 3.34385343 0.61781233 5 1 C5.09038099 6.15171623 4.84681133 10.91913204 4 16 C2.35 15.67 0.7 15.34 -1 15 C-1.02685412 12.68756208 -1.04632841 10.3750373 -1.0625 8.0625 C-1.07410156 6.77472656 -1.08570313 5.48695312 -1.09765625 4.16015625 C-1 1 -1 1 0 0 Z " fill="#FDBD39" transform="translate(190,88)"/>
<path d="M0 0 C1.4540625 0.0309375 1.4540625 0.0309375 2.9375 0.0625 C2.0625 4.9375 2.0625 4.9375 0.9375 6.0625 C-0.72867115 6.10313832 -2.39638095 6.105221 -4.0625 6.0625 C-4.105221 4.39638095 -4.10313832 2.72867115 -4.0625 1.0625 C-3.0625 0.0625 -3.0625 0.0625 0 0 Z " fill="#E4F0F8" transform="translate(123.0625,118.9375)"/>
<path d="M0 0 C0.78375 0.04125 1.5675 0.0825 2.375 0.125 C2.417721 1.79111905 2.41563832 3.45882885 2.375 5.125 C1.375 6.125 1.375 6.125 -1.1875 6.1875 C-2.3940625 6.1565625 -2.3940625 6.1565625 -3.625 6.125 C-4.25 4.25 -4.25 4.25 -4.625 2.125 C-2.625 0.125 -2.625 0.125 0 0 Z " fill="#E5F1F8" transform="translate(56.625,118.875)"/>
<path d="M0 0 C-0.639375 0.268125 -1.27875 0.53625 -1.9375 0.8125 C-4.33131686 1.88667752 -4.33131686 1.88667752 -5 5 C-5.66 5 -6.32 5 -7 5 C-6.625 2.5625 -6.625 2.5625 -6 0 C-3.50907189 -1.24546405 -2.58919267 -0.7767578 0 0 Z " fill="#FDC553" transform="translate(177,120)"/>
</svg>
