<?xml version="1.0" encoding="UTF-8"?>
<svg version="1.1" xmlns="http://www.w3.org/2000/svg" width="853" height="228">
<path d="M0 0 C281.49 0 562.98 0 853 0 C853 75.24 853 150.48 853 228 C571.51 228 290.02 228 0 228 C0 152.76 0 77.52 0 0 Z " fill="#FEFEFE" transform="translate(0,0)"/>
<path d="M0 0 C9.57 0 19.14 0 29 0 C31.40390206 5.40877963 33.72520558 10.70632174 35.85546875 16.20703125 C36.11407181 16.87304855 36.37267487 17.53906586 36.63911438 18.2252655 C37.49071211 20.42018922 38.33912457 22.61632902 39.1875 24.8125 C39.79930407 26.3913439 40.41128793 27.97011815 41.0234375 29.54882812 C43.01899072 34.69791918 45.00978809 39.84884253 47 45 C47.69612127 46.80127148 48.39224761 48.60254099 49.08837891 50.40380859 C49.79461092 52.23143968 50.50082827 54.05907644 51.20703125 55.88671875 C51.7361335 57.25596748 51.7361335 57.25596748 52.27592468 58.65287781 C54.06729807 63.28937514 55.85741502 67.92635128 57.64526367 72.56420898 C61.12294466 81.58181342 64.61784183 90.59197117 68.15625 99.5859375 C68.81194154 101.25647408 69.46754259 102.92704618 70.12304688 104.59765625 C71.34207039 107.70433157 72.56835816 110.80799984 73.79882812 113.91015625 C74.34535585 115.30196409 74.89159688 116.69388455 75.4375 118.0859375 C75.91058594 119.2826709 76.38367188 120.4794043 76.87109375 121.71240234 C78 125 78 125 79 131 C70.09 131 61.18 131 52 131 C42 107.03773585 42 107.03773585 42 102 C24.18 102 6.36 102 -12 102 C-12.33 103.98 -12.66 105.96 -13 108 C-13.55860471 109.80251642 -14.16381492 111.59118861 -14.8125 113.36328125 C-15.16570313 114.33201172 -15.51890625 115.30074219 -15.8828125 116.29882812 C-16.25148438 117.29333984 -16.62015625 118.28785156 -17 119.3125 C-17.36867188 120.32634766 -17.73734375 121.34019531 -18.1171875 122.38476562 C-20.8614914 129.8614914 -20.8614914 129.8614914 -22 131 C-23.92667507 131.08748207 -25.85651861 131.10697334 -27.78515625 131.09765625 C-28.95498047 131.09443359 -30.12480469 131.09121094 -31.33007812 131.08789062 C-32.56177734 131.07951172 -33.79347656 131.07113281 -35.0625 131.0625 C-36.91584961 131.05573242 -36.91584961 131.05573242 -38.80664062 131.04882812 C-41.87114117 131.03699608 -44.93554721 131.02051173 -48 131 C-45.39398988 121.40686131 -41.80073128 112.17155591 -38.3125 102.875 C-37.62563816 101.03696126 -36.93904177 99.19882331 -36.25268555 97.3605957 C-33.84057058 90.90501939 -31.42075676 84.45233992 -29 78 C-28.76055664 77.36175545 -28.52111328 76.72351089 -28.27441406 76.0659256 C-26.71308827 71.90419784 -25.15155348 67.74254853 -23.58992958 63.58093262 C-22.78101467 61.42515409 -21.9721867 59.26934296 -21.16337585 57.11352539 C-20.62284129 55.67284855 -20.08229869 54.23217472 -19.54174805 52.79150391 C-19.27414264 52.07828098 -19.00653723 51.36505806 -18.73082256 50.63022232 C-17.13493803 46.37744622 -15.53757665 42.12522841 -13.93898964 37.87346745 C-12.92435091 35.17432644 -11.9106021 32.47485168 -10.89700317 29.77532005 C-10.20442884 27.93172698 -9.51068682 26.08857269 -8.81689453 24.24543762 C-5.7938702 16.19180986 -2.87652329 8.10685898 0 0 Z " fill="#040B19" transform="translate(69,22)"/>
<path d="M0 0 C3.21793521 2.5028385 5.39195675 4.91264737 7.8125 8.1875 C7.8125 8.8475 7.8125 9.5075 7.8125 10.1875 C8.4725 10.1875 9.1325 10.1875 9.8125 10.1875 C10.19535156 9.2903125 10.19535156 9.2903125 10.5859375 8.375 C14.14785878 2.02252893 22.8426442 -2.1411231 29.56640625 -4.40234375 C40.18195167 -6.34083465 50.57258659 -5.23833481 60 -0.0625 C68.74327659 6.93212127 71.43840795 14.24940118 72.8125 25.1875 C72.89417927 27.40954724 72.93042845 29.63363415 72.92602539 31.85717773 C72.92594986 33.13797714 72.92587433 34.41877655 72.92579651 35.73838806 C72.92069145 37.11595703 72.91547548 38.49352559 72.91015625 39.87109375 C72.9082886 41.2959844 72.90686634 42.72087569 72.90586853 44.14576721 C72.90207066 47.8759034 72.89226402 51.60599996 72.88116455 55.33612061 C72.87089141 59.15050725 72.86635832 62.96490036 72.86132812 66.77929688 C72.85063901 74.24871798 72.83306466 81.71809836 72.8125 89.1875 C64.8925 89.1875 56.9725 89.1875 48.8125 89.1875 C48.79791748 87.50793213 48.78333496 85.82836426 48.76831055 84.09790039 C48.71644172 78.51782033 48.65109877 72.93800412 48.57678509 67.35817814 C48.53225971 63.97863766 48.49296594 60.59921278 48.46606445 57.21948242 C48.43236885 53.32441389 48.38004295 49.42996297 48.32421875 45.53515625 C48.31782883 44.3348024 48.3114389 43.13444855 48.30485535 41.89772034 C48.17132128 34.20373253 47.88602264 26.7000973 42.625 20.6875 C37.25140536 17.82158286 32.82385512 17.64922357 27.125 19.375 C22.82620619 21.03976524 19.08155186 22.56649316 16.96672058 26.93431091 C14.5438779 33.65601869 14.33998876 40.00091076 14.30078125 47.09765625 C14.27385445 48.90972816 14.27385445 48.90972816 14.24638367 50.75840759 C14.19252122 54.58890368 14.15846135 58.41927685 14.125 62.25 C14.09180579 64.85874097 14.0573142 67.46746577 14.02148438 70.07617188 C13.93438431 76.44662995 13.87410647 82.81654114 13.8125 89.1875 C5.8925 89.1875 -2.0275 89.1875 -10.1875 89.1875 C-10.217229 86.60699829 -10.217229 86.60699829 -10.24755859 83.97436523 C-10.31551322 78.27059121 -10.39230199 72.56698117 -10.47502708 66.86340237 C-10.52483064 63.40759175 -10.571161 59.95180935 -10.609375 56.49584961 C-10.65353116 52.51659372 -10.71311591 48.53763869 -10.7734375 44.55859375 C-10.78498871 43.32604355 -10.79653992 42.09349335 -10.80844116 40.82359314 C-10.91279081 30.47412523 -10.91279081 30.47412523 -15.25 21.3125 C-19.84808187 17.98622801 -23.98161303 17.7210917 -29.5234375 18.52734375 C-34.94955977 19.94406168 -38.12536549 22.59172939 -41.77734375 26.76171875 C-45.80335371 33.68734806 -45.51965783 41.57144632 -45.6015625 49.34375 C-45.62092865 50.48662476 -45.6402948 51.62949951 -45.6602478 52.80700684 C-45.71971351 56.43376353 -45.76629685 60.06055253 -45.8125 63.6875 C-45.85071014 66.15626334 -45.88976361 68.62501378 -45.9296875 71.09375 C-46.0269646 77.12493039 -46.10679662 83.15598427 -46.1875 89.1875 C-54.1075 89.1875 -62.0275 89.1875 -70.1875 89.1875 C-70.1875 58.8275 -70.1875 28.4675 -70.1875 -2.8125 C-62.9275 -2.8125 -55.6675 -2.8125 -48.1875 -2.8125 C-45.42526722 -0.05026722 -45.60893709 2.39456617 -45.1875 6.1875 C-44.57003906 5.64480469 -43.95257812 5.10210937 -43.31640625 4.54296875 C-30.36328798 -6.39916312 -15.12866611 -8.60257485 0 0 Z " fill="#040A18" transform="translate(582.1875,63.8125)"/>
<path d="M0 0 C1.175625 0.63615234 1.175625 0.63615234 2.375 1.28515625 C12.4714087 7.4078095 18.47858043 15.80097895 22 27 C23.04746802 31.79595423 23.15165594 36.43002068 23.125 41.3125 C23.12886719 42.04017578 23.13273438 42.76785156 23.13671875 43.51757812 C23.12673611 48.87326389 23.12673611 48.87326389 22 50 C19.91380978 50.09417773 17.82439523 50.11742878 15.73608398 50.11352539 C14.7556311 50.11374443 14.7556311 50.11374443 13.75537109 50.1139679 C11.58557872 50.11326883 9.41587121 50.10547678 7.24609375 50.09765625 C5.74536689 50.09579205 4.24463943 50.09436816 2.74391174 50.09336853 C-1.21318226 50.08954352 -5.17023978 50.0797134 -9.12731934 50.06866455 C-13.16234849 50.05845006 -17.19738353 50.05387083 -21.23242188 50.04882812 C-29.15496469 50.03809111 -37.07747781 50.0210149 -45 50 C-44.36988928 51.60913351 -43.7364342 53.2169577 -43.1015625 54.82421875 C-42.74916504 55.71971436 -42.39676758 56.61520996 -42.03369141 57.5378418 C-39.4605908 63.66673164 -35.65041458 66.27036829 -29.765625 68.98046875 C-20.44582868 72.41615638 -11.9746502 70.96360546 -3 67 C-0.19108958 64.97010879 -0.19108958 64.97010879 2 63 C6.21654356 64.48635116 9.62478605 66.61249159 13.3125 69.125 C14.38113281 69.84945312 15.44976563 70.57390625 16.55078125 71.3203125 C17.35902344 71.87460938 18.16726563 72.42890625 19 73 C18.1084069 78.44466184 14.28663746 80.90854651 10 84 C-4.34210456 92.5314145 -20.40304858 94.2903548 -36.78125 91.3125 C-48.10344105 87.81079143 -57.74868014 80.67179802 -63.5390625 70.22265625 C-69.94353259 56.57102263 -71.92099358 39.76688765 -67.375 25.125 C-62.5577113 13.4307338 -54.34145859 4.39897777 -42.8515625 -1.01171875 C-30.18933935 -5.9844309 -12.10642104 -6.56446141 0 0 Z " fill="#040A19" transform="translate(737,63)"/>
<path d="M0 0 C8.66274623 7.99047102 13.47827188 19.77533923 14.09765625 31.39453125 C14.27532349 41.66029052 14.27532349 41.66029052 12.88671875 44.4375 C-9.22328125 44.7675 -31.33328125 45.0975 -54.11328125 45.4375 C-49.49003495 57.01931051 -49.49003495 57.01931051 -39.875 63.53125 C-31.30808738 66.72719668 -23.44539591 65.93073567 -15.11328125 62.4375 C-13.06626909 61.12850534 -13.06626909 61.12850534 -11.23828125 59.6875 C-8.11328125 57.4375 -8.11328125 57.4375 -6.33984375 57.51171875 C-3.04118888 58.88326472 -0.24948628 60.92891001 2.63671875 63 C3.53970703 63.63711914 3.53970703 63.63711914 4.4609375 64.28710938 C5.94001589 65.33185522 7.41389134 66.38396016 8.88671875 67.4375 C8.17139843 72.30384582 5.14902584 74.40403989 1.5546875 77.47265625 C-8.02435239 84.52720539 -18.766297 86.82378753 -30.42578125 86.75 C-31.35495361 86.74436035 -32.28412598 86.7387207 -33.24145508 86.73291016 C-45.98766939 86.5072739 -56.13305485 82.96404712 -65.80078125 74.4375 C-76.50244122 62.97505852 -78.83766231 47.720157 -78.421875 32.65625 C-77.7544741 20.40487418 -72.24134274 9.00393552 -63.36328125 0.5625 C-45.55309973 -13.77503995 -18.08897247 -13.37447133 0 0 Z " fill="#040A19" transform="translate(301.11328125,68.5625)"/>
<path d="M0 0 C3.97915159 -0.02886984 7.95827653 -0.04675406 11.9375 -0.0625 C13.07380859 -0.07087891 14.21011719 -0.07925781 15.38085938 -0.08789062 C16.46044922 -0.09111328 17.54003906 -0.09433594 18.65234375 -0.09765625 C20.15269165 -0.10551147 20.15269165 -0.10551147 21.68334961 -0.11352539 C24 0 24 0 25 1 C25.10763756 2.80370846 25.14626192 4.61157605 25.15771484 6.41845703 C25.16797699 7.57701202 25.17823914 8.73556702 25.18881226 9.92922974 C25.19611359 11.19266205 25.20341492 12.45609436 25.2109375 13.7578125 C25.23182029 15.73139755 25.25272057 17.7049826 25.27463722 19.67855644 C25.32783049 24.55874544 25.3718909 29.43894533 25.40136719 34.31933594 C25.41831152 37.05107662 25.44305568 39.78253787 25.47622681 42.51412964 C25.50714117 45.08833477 25.52660227 47.66270901 25.53329468 50.23709106 C25.55905998 60.22428603 25.55905998 60.22428603 30.54296875 68.55859375 C36.74224461 71.87174593 42.07522794 71.73477818 48.6875 69.75 C55.62308273 67.1759693 58.76628054 63.46743892 62 57 C62.99133972 53.86534299 63.15067077 50.95975372 63.20532227 47.68066406 C63.22526749 46.61986633 63.24521271 45.5590686 63.26576233 44.46612549 C63.28247482 43.32746033 63.29918732 42.18879517 63.31640625 41.015625 C63.33718735 39.84489441 63.35796844 38.67416382 63.37937927 37.46795654 C63.44475628 33.72869731 63.50370491 29.98936795 63.5625 26.25 C63.60569647 23.7148365 63.64931112 21.17968009 63.69335938 18.64453125 C63.80121234 12.42975834 63.90037455 6.21493207 64 0 C71.92 0 79.84 0 88 0 C88 30.36 88 60.72 88 92 C67 92 67 92 64 91 C63.505 86.545 63.505 86.545 63 82 C62.113125 83.051875 61.22625 84.10375 60.3125 85.1875 C53.14600483 92.22525573 44.10852868 94.46636519 34.3125 94.5625 C23.96495994 94.38028061 15.51014426 91.20839739 8 84 C-0.4109155 74.2310721 -0.43735417 61.05173368 -0.29296875 48.828125 C-0.28735714 47.41038467 -0.28309447 45.99263842 -0.28010559 44.57489014 C-0.26877963 40.88577543 -0.23942207 37.19702841 -0.20599365 33.50805664 C-0.17502468 29.72677582 -0.1615436 25.94543422 -0.14648438 22.1640625 C-0.11453721 14.77587602 -0.06349429 7.38798998 0 0 Z " fill="#050B19" transform="translate(407,61)"/>
<path d="M0 0 C2.35165575 1.62046867 4.59698737 3.28088925 6.7890625 5.109375 C3.17931803 11.07330065 -1.49050574 16.00566032 -6.2109375 21.109375 C-6.84 20.69945313 -7.4690625 20.28953125 -8.1171875 19.8671875 C-15.71992501 15.08112684 -22.00617605 12.41467602 -31.2109375 13.109375 C-34.04471882 14.0068577 -34.04471882 14.0068577 -36.2109375 15.109375 C-36.5409375 17.419375 -36.8709375 19.729375 -37.2109375 22.109375 C-30.41122364 26.85897877 -23.34172302 29.38406552 -15.51953125 31.98242188 C-6.6540389 35.04268597 2.29677802 38.47097762 6.890625 47.12109375 C10.46470067 55.0306786 10.53726409 62.59038881 7.91796875 70.859375 C4.196733 79.30619386 -2.03106954 84.09555959 -10.4609375 87.546875 C-26.49320502 92.28881328 -43.60375185 89.50566315 -58.11328125 81.74609375 C-61.27536751 79.27884209 -63.68684255 76.20983394 -66.2109375 73.109375 C-64.28086787 70.79029909 -62.34249172 68.47917811 -60.3984375 66.171875 C-59.85123047 65.51251953 -59.30402344 64.85316406 -58.74023438 64.17382812 C-58.20849609 63.54541016 -57.67675781 62.91699219 -57.12890625 62.26953125 C-56.64188232 61.68824463 -56.1548584 61.10695801 -55.65307617 60.50805664 C-54.2109375 59.109375 -54.2109375 59.109375 -51.2109375 58.109375 C-50.7159375 58.686875 -50.2209375 59.264375 -49.7109375 59.859375 C-43.14996123 65.76425364 -35.13696403 67.69191512 -26.5234375 68.421875 C-22.74662608 68.06557204 -20.41322752 67.12011525 -17.2109375 65.109375 C-15.00091975 62.37197124 -15.00091975 62.37197124 -15.1484375 59.671875 C-16.71550452 55.89247806 -19.65528031 54.7695379 -23.2109375 53.109375 C-28.40390991 51.12194111 -33.68345276 49.38280839 -38.96289062 47.640625 C-47.40495697 44.73342335 -55.38001348 40.98199192 -60.2109375 33.109375 C-63.45120687 24.88947087 -64.46310883 17.53545526 -61.2109375 9.109375 C-56.54265953 1.6062817 -51.18698658 -3.26707268 -42.75 -6.12109375 C-28.36620164 -9.2486967 -12.74975404 -7.50715445 0 0 Z " fill="#050B19" transform="translate(386.2109375,65.890625)"/>
<path d="M0 0 C1.04285156 -0.00257812 2.08570313 -0.00515625 3.16015625 -0.0078125 C5.9375 0.125 5.9375 0.125 8.9375 1.125 C8.9375 8.715 8.9375 16.305 8.9375 24.125 C6.5193337 25.33408315 5.12775339 25.16040479 2.4375 25.0625 C-5.76621705 25.00331012 -13.42152226 26.07785692 -20.0625 31.125 C-26.08418681 39.27976083 -26.35597492 50.2084171 -26.4765625 59.9453125 C-26.49592865 60.92998505 -26.5152948 61.91465759 -26.5352478 62.9291687 C-26.59443636 66.03602778 -26.64118336 69.14292514 -26.6875 72.25 C-26.7257358 74.37241089 -26.76479067 76.49480719 -26.8046875 78.6171875 C-26.90008705 83.78633811 -26.98433885 88.95556117 -27.0625 94.125 C-30.87498426 94.15387236 -34.6874407 94.17175492 -38.5 94.1875 C-39.58861328 94.19587891 -40.67722656 94.20425781 -41.79882812 94.21289062 C-42.83330078 94.21611328 -43.86777344 94.21933594 -44.93359375 94.22265625 C-45.89193115 94.22789307 -46.85026855 94.23312988 -47.83764648 94.23852539 C-50.0625 94.125 -50.0625 94.125 -51.0625 93.125 C-51.15770906 90.29459328 -51.18803631 87.48865007 -51.17602539 84.65795898 C-51.17617142 83.77023804 -51.17631744 82.88251709 -51.1764679 81.96789551 C-51.17576843 79.01893716 -51.16797448 76.07004113 -51.16015625 73.12109375 C-51.15829219 71.08228083 -51.15686823 69.04346746 -51.15586853 67.00465393 C-51.15204241 61.62715426 -51.14221132 56.24968142 -51.13116455 50.87219238 C-51.12095245 45.38940799 -51.11637134 39.90661928 -51.11132812 34.42382812 C-51.10058914 23.65753838 -51.08299158 12.89127561 -51.0625 2.125 C-42.8125 2.125 -34.5625 2.125 -26.0625 2.125 C-25.7325 5.425 -25.4025 8.725 -25.0625 12.125 C-24.0725 11.0525 -23.0825 9.98 -22.0625 8.875 C-15.70809262 2.50770336 -8.90497451 -0.02206933 0 0 Z " fill="#060C1B" transform="translate(211.0625,58.875)"/>
<path d="M0 0 C5.87199918 3.9496185 9.3719396 9.47508983 10.96875 16.32421875 C11.72488757 23.02143725 10.32153786 28.45438193 6.96875 34.32421875 C2.27174685 39.7490868 -3.63488733 43.12204368 -10.71875 44.26171875 C-17.55512807 44.745619 -23.62735391 42.77948806 -29.17578125 38.77734375 C-34.11203047 34.24638657 -36.56732972 29.479899 -37.30859375 22.83984375 C-37.61115335 14.85227019 -35.21904536 8.78593722 -29.8125 2.90234375 C-21.59763664 -4.37573695 -9.58178236 -4.94711589 0 0 Z " fill="#019C3B" transform="translate(815.03125,110.67578125)"/>
<path d="M0 0 C5.67129481 2.64008552 9.01718584 6.51956427 11.3125 12.3125 C12.39570012 18.12239156 12.14945704 22.6716355 8.9375 27.75 C5.45633647 32.10893543 1.24850239 34.5079721 -4.26953125 35.34375 C-10.66161881 35.605096 -15.27539887 33.60999157 -20.75 30.375 C-24.55316208 26.36055114 -26.06344738 21.97296304 -25.9453125 16.4375 C-25.03396903 10.33707839 -22.73780124 5.98972736 -18 2 C-12.76291153 -1.45277072 -5.98857095 -0.56403982 0 0 Z " fill="#060B18" transform="translate(817,185)"/>
<path d="M0 0 C2.47959228 2.20992797 3.64512109 4.10449725 4.79345703 7.20849609 C5.11033478 8.05302338 5.42721252 8.89755066 5.75369263 9.76766968 C6.25073196 11.13177475 6.25073196 11.13177475 6.7578125 12.5234375 C7.1063327 13.46176422 7.45485291 14.40009094 7.81393433 15.36685181 C8.54897388 17.35087122 9.28000748 19.3363787 10.00732422 21.32324219 C11.11936354 24.35960992 12.24412425 27.39102124 13.37109375 30.421875 C14.08408936 32.35128329 14.79635333 34.28096213 15.5078125 36.2109375 C15.84322052 37.11629242 16.17862854 38.02164734 16.52420044 38.95443726 C16.83477386 39.80526886 17.14534729 40.65610046 17.46533203 41.53271484 C17.73830109 42.27645355 18.01127014 43.02019226 18.29251099 43.78646851 C19 46 19 46 20 51 C7.46 51 -5.08 51 -18 51 C-14.62302977 39.74343257 -14.62302977 39.74343257 -12.94921875 35.1171875 C-12.58304443 34.10197021 -12.21687012 33.08675293 -11.83959961 32.04077148 C-11.45940674 30.99606689 -11.07921387 29.9513623 -10.6875 28.875 C-10.29377197 27.78711182 -9.90004395 26.69922363 -9.49438477 25.57836914 C-6.39270975 17.02836958 -3.23098759 8.50193206 0 0 Z " fill="#FCFCFC" transform="translate(83,53)"/>
<path d="M0 0 C7.55793446 4.49390697 9.8079449 9.9863347 12.625 18.4375 C-2.225 18.4375 -17.075 18.4375 -32.375 18.4375 C-29.35981199 9.39193596 -27.10265222 4.95575281 -19.6875 -0.5625 C-13.26506193 -2.50134923 -6.22123351 -2.77562726 0 0 Z " fill="#FCFCFC" transform="translate(723.375,80.5625)"/>
<path d="M0 0 C6.209832 3.68990017 10.0452544 8.59046985 12.5625 15.3125 C12.5625 16.3025 12.5625 17.2925 12.5625 18.3125 C-1.6275 18.3125 -15.8175 18.3125 -30.4375 18.3125 C-29.34539191 10.66774339 -27.47116934 6.16094983 -21.90625 0.8515625 C-15.68566545 -3.44795917 -6.67094337 -3.0954188 0 0 Z " fill="#FCFCFC" transform="translate(277.4375,80.6875)"/>
<path d="M0 0 C2.97 0 5.94 0 9 0 C9 11.22 9 22.44 9 34 C6.03 34 3.06 34 0 34 C0 22.78 0 11.56 0 0 Z " fill="#020813" transform="translate(778,185)"/>
<path d="M0 0 C3.2635064 0.90652956 3.9174406 1.87473746 5.8125 4.75 C7.1802634 8.49335247 7.22900739 10.231044 6 14 C4.31630076 16.49187487 3.00650247 17.67362368 0.1328125 18.60546875 C-3.58762547 19.31445787 -5.45645252 19.28358999 -8.875 17.5 C-11.56496088 14.33534014 -12.43230994 12.11575291 -13 8 C-10.47148192 0.94676537 -7.29214207 -0.51172927 0 0 Z " fill="#F8F8F9" transform="translate(813,193)"/>
<path d="M0 0 C2.9375 0.875 2.9375 0.875 4.9375 3.875 C4.6133631 7.19740324 4.32973697 8.48276303 1.9375 10.875 C-0.90852594 11.23987512 -2.4489306 11.27699375 -4.875 9.6875 C-6.48775784 7.22592224 -6.4959014 5.76434264 -6.0625 2.875 C-4.29035152 -0.0785808 -3.47140412 -0.14168996 0 0 Z " fill="#060A17" transform="translate(783.0625,168.125)"/>
<path d="M0 0 C0.33 0 0.66 0 1 0 C1 10.89 1 21.78 1 33 C-1.64 33 -4.28 33 -7 33 C-7 32.67 -7 32.34 -7 32 C-6.195625 31.87625 -5.39125 31.7525 -4.5625 31.625 C-3.716875 31.41875 -2.87125 31.2125 -2 31 C-0.57732138 28.15464275 -0.78028131 25.63781448 -0.68359375 22.4609375 C-0.64169922 21.15898437 -0.59980469 19.85703125 -0.55664062 18.515625 C-0.51682701 17.13541955 -0.47711478 15.75521117 -0.4375 14.375 C-0.39430593 12.98696585 -0.35069135 11.59894472 -0.30664062 10.2109375 C-0.20028 6.80739744 -0.09825286 3.40378222 0 0 Z " fill="#171B27" transform="translate(786,186)"/>
<path d="M0 0 C3.96 0 7.92 0 12 0 C12.33 0.99 12.66 1.98 13 3 C8.71 3 4.42 3 0 3 C0 2.01 0 1.02 0 0 Z " fill="#121722" transform="translate(205,59)"/>
<path d="M0 0 C0 0.99 0 1.98 0 3 C-7.26 2.67 -14.52 2.34 -22 2 C-22 1.67 -22 1.34 -22 1 C-18.70837401 0.83252349 -15.41669287 0.66615639 -12.125 0.5 C-11.18785156 0.45230469 -10.25070312 0.40460937 -9.28515625 0.35546875 C-8.38925781 0.31035156 -7.49335938 0.26523437 -6.5703125 0.21875 C-5.74289551 0.17685547 -4.91547852 0.13496094 -4.06298828 0.09179688 C-2.70965236 0.03157743 -1.35467505 0 0 0 Z " fill="#0D1220" transform="translate(495,61)"/>
<path d="M0 0 C2.875 0.3125 2.875 0.3125 6 1 C8 4 8 4 7.625 6.1875 C7.41875 6.785625 7.2125 7.38375 7 8 C6.6596875 7.0409375 6.6596875 7.0409375 6.3125 6.0625 C5.14749104 3.72806339 5.14749104 3.72806339 2.375 3.25 C1.59125 3.1675 0.8075 3.085 0 3 C0 2.01 0 1.02 0 0 Z " fill="#282B32" transform="translate(780,168)"/>
<path d="M0 0 C0.33 0.99 0.66 1.98 1 3 C1.66 3.33 2.32 3.66 3 4 C2.34 5.98 1.68 7.96 1 10 C0.34 9.34 -0.32 8.68 -1 8 C-0.96712417 5.27130593 -0.43602229 2.7033382 0 0 Z " fill="#151820" transform="translate(792,196)"/>
<path d="M0 0 C0.99 0 1.98 0 3 0 C3 0.66 3 1.32 3 2 C4.98 2 6.96 2 9 2 C9 2.66 9 3.32 9 4 C6.03 3.67 3.06 3.34 0 3 C0 2.01 0 1.02 0 0 Z " fill="#16181F" transform="translate(343,151)"/>
<path d="M0 0 C0 4.38968456 -2.12805101 5.76905739 -5 9 C-5.33 8.34 -5.66 7.68 -6 7 C-4.02 4.69 -2.04 2.38 0 0 Z " fill="#020408" transform="translate(333,65)"/>
</svg>
